<svg id="Layer_1" enable-background="new 0 0 512 512" viewBox="0 0 512 512" xmlns="http://www.w3.org/2000/svg"><path d="m500.7 305.3c-10-18.32-33.06-25.11-51.4-15.15l-24.58 13.38c-.4-.88-.82-1.76-1.29-2.61-9.97-18.36-33.03-25.18-51.41-15.19l-42.19 22.99c-11.99-3.86-23.99-7.72-35.98-11.58-17.14-5.52-34.29-11.04-51.42-16.55-29.65-9.56-58.56-6.85-85.93 8.04l-73.33 39.92-8.17-14.21c-4.38-7.54-14.06-10.13-21.56-5.78l-38.86 22.35c-7.54 4.37-10.13 14.04-5.78 21.56l87.32 151.65c2.92 5.04 8.25 7.87 13.72 7.87 2.67 0 5.37-.67 7.84-2.09l38.86-22.38c7.54-4.38 10.13-14.06 5.78-21.56l-7.85-13.62 4.17-2.27c16.37-8.91 33.67-10.52 51.42-4.8l37.59 12.11c8.6 2.76 17.12 4.14 25.52 4.14 13.15 0 26.01-3.39 38.43-10.14l173.9-94.65c8.87-4.82 15.34-12.83 18.21-22.56 2.89-9.74 1.82-19.98-3.01-28.87zm-121.04-5.53c10.62-5.77 23.96-1.83 29.73 8.8.47.86.85 1.75 1.2 2.65l-42.39 23.08c-3.61-8.01-9.93-14.62-17.87-18.55zm-269.79 196.18-87.11-151.3 38.5-22.15 11.79 20.46c.03.05.05.1.07.15.08.14.16.27.24.4l75.02 130.26zm378.52-166.32c-1.67 5.63-5.4 10.27-10.52 13.05l-173.9 94.65c-16.36 8.9-33.66 10.53-51.42 4.83l-37.58-12.1c-22.08-7.12-43.59-5.11-63.96 5.97l-4.51 2.45-55.33-96.08 72.99-39.73c23.37-12.72 48.06-15.03 73.38-6.87 17.13 5.51 34.28 11.03 51.42 16.55 13.17 4.24 26.34 8.48 39.5 12.72.04.01.07.03.11.04 3.93 1.26 7.86 2.53 11.79 3.8 8.04 2.61 13.94 9.75 15.03 18.2.04.27.09.54.15.8-.02.3-.03.61-.01.92.13 2.58-.22 5.17-1.01 7.67-3.71 11.49-16.08 17.82-27.59 14.12-21.87-7.03-43.74-14.08-65.62-21.14l-21.66-6.98c-4.2-1.35-8.71.96-10.06 5.16s.95 8.71 5.16 10.06l21.66 6.98c21.88 7.05 43.76 14.11 65.63 21.14 3.85 1.24 7.75 1.83 11.6 1.83 16.02 0 30.94-10.24 36.12-26.3 1.11-3.49 1.7-7.07 1.78-10.65l52.12-28.38c.07-.04.15-.08.22-.12l33.07-18.01c10.6-5.76 23.94-1.83 29.72 8.75 2.77 5.11 3.38 11.03 1.72 16.67zm-230.43-88.72c35.51 0 68.32-15.15 91.24-41.83 16.28 12.08 36.42 19.24 58.2 19.24 53.97 0 97.88-43.9 97.88-97.85 0-53.97-43.91-97.88-97.88-97.88-21.79 0-41.93 7.16-58.21 19.25-22.9-26.67-55.7-41.82-91.23-41.82-66.41 0-120.44 54.03-120.44 120.44s54.02 120.45 120.44 120.45zm231.33-120.45c0 45.14-36.74 81.86-81.89 81.86-45.14 0-81.86-36.72-81.86-81.86 0-45.16 36.72-81.89 81.86-81.89 45.15 0 81.89 36.73 81.89 81.89zm-169.89 42.76c-14.02 20.18-36.67 32.1-61.44 32.1-41.28 0-74.86-33.58-74.86-74.86s33.58-74.86 74.86-74.86c24.78 0 47.43 11.91 61.44 32.08-6.31 12.93-9.85 27.45-9.85 42.78 0 15.32 3.54 29.83 9.85 42.76zm-61.44-147.22c30.86 0 59.35 13.18 79.21 36.38-3.2 3.3-6.16 6.82-8.88 10.54-17.14-21.05-42.64-33.31-70.33-33.31-50.09 0-90.85 40.76-90.85 90.85s40.76 90.85 90.85 90.85c27.68 0 53.18-12.27 70.33-33.33 2.72 3.72 5.69 7.25 8.89 10.55-19.88 23.21-48.38 36.39-79.22 36.39-57.6 0-104.46-46.86-104.46-104.46s46.86-104.46 104.46-104.46zm24.09 122.6c0 11.76-7.81 21.74-18.51 25.02v9.39c0 4.42-3.58 7.99-7.99 7.99-4.42 0-7.99-3.58-7.99-7.99v-8.59c-4.83-.77-9.39-2.87-13.12-6.14-3.32-2.91-3.65-7.96-.75-11.28 2.91-3.32 7.96-3.65 11.28-.75 1.86 1.63 4.24 2.53 6.69 2.53h4.22c5.61 0 10.18-4.56 10.18-10.18 0-5.6-4.56-10.15-10.18-10.15h-2.1c-1.74 0-3.35-.56-4.66-1.51-10.14-3.61-17.42-13.3-17.42-24.66 0-11.76 7.81-21.74 18.51-25.02v-9.39c0-4.42 3.58-7.99 7.99-7.99 4.42 0 7.99 3.58 7.99 7.99v8.6c4.82.78 9.38 2.89 13.12 6.17 3.32 2.91 3.65 7.96.75 11.28-2.91 3.32-7.96 3.65-11.28.74-1.88-1.65-4.26-2.55-6.69-2.55h-4.22c-5.52 0-10.18 4.66-10.18 10.18s4.66 10.18 10.18 10.18h2.1c1.74 0 3.34.56 4.66 1.5 10.14 3.6 17.42 13.28 17.42 24.63zm79.61 16.29 80.16-80.16c3.12-3.12 8.18-3.12 11.3 0s3.12 8.18 0 11.3l-80.16 80.16c-1.56 1.56-3.61 2.34-5.65 2.34s-4.09-.78-5.65-2.34c-3.12-3.12-3.12-8.18 0-11.3zm18.38-41.09c11.43 0 20.72-9.3 20.72-20.72 0-11.41-9.3-20.69-20.72-20.69s-20.72 9.28-20.72 20.69c0 11.42 9.3 20.72 20.72 20.72zm0-25.43c2.61 0 4.73 2.11 4.73 4.71 0 2.61-2.12 4.73-4.73 4.73s-4.73-2.12-4.73-4.73c0-2.6 2.12-4.71 4.73-4.71zm54.71 38.72c-11.41 0-20.69 9.3-20.69 20.72s9.28 20.72 20.69 20.72c11.43 0 20.72-9.3 20.72-20.72s-9.29-20.72-20.72-20.72zm0 25.46c-2.59 0-4.71-2.12-4.71-4.73s2.11-4.73 4.71-4.73c2.61 0 4.73 2.12 4.73 4.73s-2.12 4.73-4.73 4.73z"/></svg>