<svg id="Layer_1" enable-background="new 0 0 512 512" viewBox="0 0 512 512" xmlns="http://www.w3.org/2000/svg"><path d="m500.13 360.86c-11.8-20.44-30.87-35.07-53.67-41.17-4.93-1.32-9.9-2.18-14.88-2.64v-220.72c0-18.79-15.3-34.07-34.1-34.07h-20.86v-17.16c0-14.66-11.93-26.59-26.59-26.59s-26.59 11.93-26.59 26.59v17.15h-36.31v-17.15c0-14.66-11.93-26.59-26.59-26.59s-26.59 11.93-26.59 26.59v17.15h-36.31v-17.15c0-14.66-11.93-26.59-26.59-26.59s-26.59 11.93-26.59 26.59v17.15h-36.31v-17.15c0-14.66-11.93-26.59-26.59-26.59s-26.6 11.93-26.6 26.59v17.15h-20.89c-18.78 0-34.07 15.29-34.07 34.08v346.03c0 18.79 15.29 34.07 34.07 34.07h337.33c8.7 6.36 18.58 11.14 29.3 14.01 7.61 2.04 15.33 3.04 23 3.04 15.32 0 30.44-4.02 44.06-11.89 20.44-11.81 35.07-30.87 41.17-53.67 6.13-22.8 3-46.62-8.8-67.06zm-160.71-315.76c0-5.85 4.75-10.6 10.6-10.6s10.6 4.75 10.6 10.6v50.26c0 5.85-4.76 10.6-10.6 10.6s-10.6-4.75-10.6-10.6zm-89.49 0c0-5.85 4.76-10.6 10.6-10.6s10.6 4.75 10.6 10.6v50.26c0 5.85-4.75 10.6-10.6 10.6s-10.6-4.75-10.6-10.6zm-89.49 0c0-5.85 4.76-10.6 10.6-10.6s10.6 4.75 10.6 10.6v50.26c0 5.85-4.76 10.6-10.6 10.6s-10.6-4.75-10.6-10.6zm-89.49 0c0-5.85 4.76-10.6 10.6-10.6s10.6 4.75 10.6 10.6v50.26c0 5.85-4.75 10.6-10.6 10.6s-10.6-4.75-10.6-10.6zm-54.96 51.23c0-9.97 8.11-18.08 18.08-18.08h20.89v17.12c0 14.66 11.93 26.59 26.59 26.59s26.59-11.93 26.59-26.59v-17.13h36.31v17.12c0 14.66 11.93 26.59 26.59 26.59s26.59-11.93 26.59-26.59v-17.12h36.31v17.12c0 14.66 11.93 26.59 26.59 26.59s26.59-11.93 26.59-26.59v-17.12h36.31v17.12c0 14.66 11.93 26.59 26.59 26.59s26.59-11.93 26.59-26.59v-17.12h20.86c9.99 0 18.11 8.11 18.11 18.08v46.38h-399.59zm0 346.02v-283.66h399.6v158.32c-12.6 1.14-24.92 4.99-36.2 11.51-20.45 11.8-35.07 30.86-41.17 53.66-6.12 22.8-2.99 46.62 8.82 67.07 2.28 3.96 4.85 7.69 7.65 11.19h-320.62c-9.97 0-18.08-8.12-18.08-18.09zm477.51-18.56c-10.32 38.56-50.1 61.53-88.65 51.21-9.42-2.53-18.06-6.83-25.55-12.63-.1-.09-.21-.17-.32-.26-7.22-5.65-13.37-12.68-18.09-20.86-9.67-16.75-12.23-36.26-7.22-54.94 5-18.68 16.97-34.28 33.72-43.95 11.1-6.41 23.41-9.69 35.89-9.72.1 0 .2.02.31.02.08 0 .17-.01.25-.01 6.17.03 12.37.85 18.49 2.49 18.68 5 34.29 16.98 43.96 33.72 9.66 16.74 12.22 36.24 7.21 54.93zm-45.55-56.11-31.29 31.29-17.45-17.42c-7.98-7.99-20.98-7.99-28.96 0-7.97 7.97-7.98 20.97 0 29l31.9 31.87c3.87 3.89 9.02 6.04 14.5 6.04s10.63-2.14 14.48-6.02l45.8-45.77c7.96-8.01 7.95-21.01-.02-28.98-7.98-8-20.98-8-28.96-.01zm17.66 17.68-45.8 45.77c-.85.85-1.97 1.32-3.16 1.32s-2.31-.47-3.18-1.34l-31.9-31.87c-1.76-1.77-1.77-4.65-.02-6.4.88-.88 2.03-1.31 3.18-1.31s2.3.44 3.18 1.32l23.1 23.07c3.12 3.12 8.18 3.12 11.3 0l36.94-36.94c1.75-1.75 4.6-1.75 6.35 0 1.76 1.76 1.76 4.63.01 6.38zm-224.61-58.89c0 11.06-7.25 20.45-17.24 23.7v8.33c0 4.42-3.58 7.99-7.99 7.99s-7.99-3.58-7.99-7.99v-7.51c-6.18-1.12-11.82-4.58-15.63-9.72-2.63-3.55-1.89-8.55 1.66-11.18 3.54-2.63 8.55-1.89 11.18 1.66 1.7 2.29 4.38 3.66 7.19 3.66h3.91c4.92 0 8.93-4 8.93-8.93 0-4.91-4-8.9-8.93-8.9h-.6-1.36c-.61 0-1.2-.07-1.77-.2-12.27-1.55-21.78-12.04-21.78-24.71 0-11.05 7.23-20.43 17.21-23.69v-8.34c0-4.42 3.58-7.99 7.99-7.99s7.99 3.58 7.99 7.99v7.51c6.19 1.12 11.85 4.58 15.66 9.73 2.63 3.55 1.89 8.55-1.66 11.18-3.54 2.63-8.55 1.89-11.18-1.66-1.7-2.29-4.38-3.65-7.19-3.65h-3.91c-4.92 0-8.93 4-8.93 8.93s4 8.93 8.93 8.93h.6 1.36c.61 0 1.2.07 1.77.2 12.26 1.52 21.78 12 21.78 24.66zm-25.23-107.03c-49.69 0-90.11 40.43-90.11 90.11 0 49.7 40.42 90.14 90.11 90.14 49.7 0 90.14-40.44 90.14-90.14.01-49.69-40.43-90.11-90.14-90.11zm0 164.26c-40.87 0-74.12-33.26-74.12-74.15 0-40.87 33.25-74.13 74.12-74.13 40.89 0 74.15 33.25 74.15 74.13.01 40.89-33.26 74.15-74.15 74.15zm0-195.79c-67.07 0-121.63 54.57-121.63 121.63 0 67.08 54.57 121.66 121.63 121.66 67.09 0 121.66-54.58 121.66-121.66.01-67.06-54.57-121.63-121.66-121.63zm0 227.31c-58.25 0-105.65-47.41-105.65-105.67 0-58.25 47.39-105.65 105.65-105.65 58.27 0 105.68 47.39 105.68 105.65 0 58.27-47.41 105.67-105.68 105.67z"/></svg>