<svg id="logo" viewBox="0 0 44 77" xmlns="http://www.w3.org/2000/svg">
  <defs>
    <style>.cls-1{fill:#154273;}.cls-2{fill:#fff;}</style>
  </defs>
  <title>logo-rijksoverheid-test</title>
  <rect class="cls-1" height="77" width="44"/>
  <path class="cls-2"
    d="M22.76,57H22V54.89h0.76V57Zm3.45-9.35H25.45V45.54h0.76v2.12ZM12.05,44a0.79,0.79,0,0,0-.45.08,0.72,0.72,0,0,0,.45.09c0.61,0.1.85,0.41,1.28,0.41A0.61,0.61,0,0,0,14,43.75c0-.09-0.08-0.07-0.09,0a0.68,0.68,0,0,1-.7.4C12.77,44.14,12.68,44,12.05,44ZM7.84,46.12a0.8,0.8,0,0,1-.32,1.39c-0.05,0-.07.06,0,0.1a1,1,0,0,0,1.22-.29,1.22,1.22,0,0,1-.22,1.46,1.79,1.79,0,0,0,1.07.59,1.41,1.41,0,0,0,.67-0.71,1.23,1.23,0,0,1,0,.8c1.67,0.15,2.26-1.18,3.55-.94,0,0,.05,0,0.05-0.06a2.68,2.68,0,0,0-2.1-2.64c-1.59-.31-1.16-1-1.16-1a1.74,1.74,0,0,1,1.06.26,0.41,0.41,0,0,0-.05-0.42,1.2,1.2,0,0,0,.1-0.35,1.71,1.71,0,0,1-.95-0.16c-0.12-.45.2-1.08,1.32-0.4a0.86,0.86,0,0,0,.26-0.63,0.32,0.32,0,0,0,.14-0.23,2.64,2.64,0,0,0-1.13-.75c-0.06-.27-0.4-0.66-1.46-0.52-0.5.06-.86-0.07-0.69-0.36,0,0-.06-0.06-0.11,0a0.39,0.39,0,0,0,.16.66,1,1,0,0,1,.52.8c0,0.1-.12.11-0.14,0a1.33,1.33,0,0,0-2-.56,0.88,0.88,0,0,0,.77.73,0.38,0.38,0,0,0,.35-0.35c0-.1.05-0.09,0.08,0a0.6,0.6,0,0,1-1,.53,1.73,1.73,0,0,0-.33,1.75c0.12,0.53-.14,1-0.62.81,0,0-.05,0-0.05,0A0.6,0.6,0,0,0,7.84,46.12Zm3.58-3.28a0.51,0.51,0,0,1-.92-0.3C11.13,42.51,11.4,42.57,11.42,42.84Zm19.4,1.3a0.67,0.67,0,0,1-.7-0.4c0-.06-0.07-0.09-0.09,0a0.61,0.61,0,0,0,.63.83c0.43,0,.67-0.31,1.28-0.41a0.65,0.65,0,0,0,.45-0.09A0.81,0.81,0,0,0,31.94,44C31.31,44,31.23,44.14,30.82,44.14Zm6.29,1.56c0-.06,0,0,0,0-0.48.24-.74-0.28-0.62-0.81a1.69,1.69,0,0,0-.33-1.75,0.59,0.59,0,0,1-1-.53c0-.08.08-0.09,0.08,0a0.38,0.38,0,0,0,.35.35,0.88,0.88,0,0,0,.77-0.73,1.33,1.33,0,0,0-2,.56c0,0.1-.15.09-0.14,0a0.93,0.93,0,0,1,.52-0.8,0.38,0.38,0,0,0,.16-0.66s-0.14,0-.11,0c0.17,0.29-.19.42-0.69,0.36-1-.14-1.4.25-1.46,0.52a2.64,2.64,0,0,0-1.13.75,0.29,0.29,0,0,0,.14.23,0.86,0.86,0,0,0,.26.63c1.12-.68,1.43,0,1.32.4a1.71,1.71,0,0,1-1,.16,1.2,1.2,0,0,0,.1.35,0.41,0.41,0,0,0,0,.42,1.74,1.74,0,0,1,1.06-.26s0.43,0.65-1.16,1a2.68,2.68,0,0,0-2.1,2.64,0.05,0.05,0,0,0,0,.06c1.29-.24,1.88,1.1,3.55.94a1.23,1.23,0,0,1,0-.8,1.46,1.46,0,0,0,.67.71,1.74,1.74,0,0,0,1.07-.59,1.22,1.22,0,0,1-.22-1.46,1,1,0,0,0,1.22.29c0.07,0,.06-0.08,0-0.1a0.8,0.8,0,0,1-.32-1.39A0.6,0.6,0,0,0,37.11,45.7Zm-3.62-3.16a0.51,0.51,0,0,1-.92.3C32.6,42.57,32.87,42.51,33.49,42.54ZM21.71,33.15a0.59,0.59,0,0,0,.11.33c0.1,0.14.08,0.22,0,.26s-0.12.06-.26,0a0.59,0.59,0,0,0-.33-0.11,0.32,0.32,0,0,0-.36.29,0.32,0.32,0,0,0,.36.29,0.59,0.59,0,0,0,.33-0.11c0.14-.1.22-0.08,0.26,0a3.2,3.2,0,0,1-.08.91,0.69,0.69,0,0,0-.59.59,1.22,1.22,0,0,0,.82.92,1.24,1.24,0,0,0,.82-0.92,0.69,0.69,0,0,0-.59-0.59A4.28,4.28,0,0,1,22.16,34s0.12-.06.26,0a0.59,0.59,0,0,0,.33.11,0.32,0.32,0,0,0,.36-0.29,0.32,0.32,0,0,0-.36-0.29,0.59,0.59,0,0,0-.33.11c-0.14.1-.22,0.08-0.26,0s-0.06-.12,0-0.26a0.59,0.59,0,0,0,.11-0.33A0.32,0.32,0,0,0,22,32.79,0.32,0.32,0,0,0,21.71,33.15ZM22,36.72a0.59,0.59,0,1,0,.59.59A0.59,0.59,0,0,0,22,36.72Zm0,5.63a12.45,12.45,0,0,1,3.67.45c0-1.18,0-1.85.68-1.75-0.37-1,1.23-1.39,1.23-2.68a0.81,0.81,0,0,0-.78-1c-0.53,0-.45.35-0.9,0.35-0.06,0-.11,0-0.11,0a0.41,0.41,0,0,0,.33.4,3,3,0,0,0,.49-0.28c0.09,0,.22.07,0.22,0.36A2.72,2.72,0,0,1,26,39.92a0.47,0.47,0,0,0-.39-0.22,0.54,0.54,0,0,0-.47.59,0.78,0.78,0,0,0,.06.31,0.79,0.79,0,0,1-.36.12,0.45,0.45,0,0,1-.48-0.5c0-.94,1.26-1.77,1.26-3a1.1,1.1,0,0,0-1.17-1.14c-0.85,0-.69.78-1.43,0.78a0,0,0,0,0-.06,0,0.58,0.58,0,0,0,.51.48c0.41,0,.52-0.71.88-0.71,0.14,0,.34.08,0.34,0.56a4.29,4.29,0,0,1-.45,1.55,0.53,0.53,0,0,0-.37-0.17,0.61,0.61,0,0,0-.54.67,0.82,0.82,0,0,0,.25.6,0.87,0.87,0,0,1-.63.43,0.63,0.63,0,0,1-.73-0.6c0-.34.62-0.46,0.62-1a0.51,0.51,0,0,0-.46-0.57,0.64,0.64,0,0,0-.39.16,0.67,0.67,0,0,0-.39-0.16,0.51,0.51,0,0,0-.46.57c0,0.53.62,0.66,0.62,1a0.63,0.63,0,0,1-.73.6,0.84,0.84,0,0,1-.63-0.43,0.82,0.82,0,0,0,.25-0.6,0.61,0.61,0,0,0-.54-0.67,0.5,0.5,0,0,0-.37.17,4.51,4.51,0,0,1-.45-1.55c0-.48.2-0.56,0.34-0.56,0.36,0,.48.71,0.88,0.71a0.58,0.58,0,0,0,.51-0.48,0,0,0,0,0-.06,0c-0.74,0-.58-0.78-1.43-0.78a1.1,1.1,0,0,0-1.17,1.14c0,1.19,1.26,2,1.26,3a0.45,0.45,0,0,1-.48.5,0.89,0.89,0,0,1-.36-0.12,0.78,0.78,0,0,0,.06-0.31,0.54,0.54,0,0,0-.47-0.59,0.47,0.47,0,0,0-.39.22,2.69,2.69,0,0,1-.79-1.64c0-.28.13-0.36,0.22-0.36a3,3,0,0,0,.49.28,0.4,0.4,0,0,0,.33-0.4s-0.06,0-.11,0c-0.45,0-.37-0.35-0.9-0.35a0.81,0.81,0,0,0-.78,1c0,1.3,1.6,1.69,1.23,2.68,0.68-.1.67,0.56,0.68,1.75A11.29,11.29,0,0,1,22,42.35ZM17.7,44.1c-0.64.14-1.1,0.27-1.3,0.33a0.58,0.58,0,0,1,.37-0.6,0,0,0,0,0,0-.07c-0.57-.38-0.87.35-0.88,0.37a0.41,0.41,0,0,0-.51.32c0,0.82-1.86,1.27-2.3,1.33A2.2,2.2,0,0,1,14.17,47a4.83,4.83,0,0,1,1.34-1,0.27,0.27,0,0,1,.21.29,0,0,0,0,0,.06,0,0.58,0.58,0,0,0,.13-0.66,0.36,0.36,0,0,1,.43-0.43v5.44l-0.22,0c-0.1,0-.89-0.66-1.81-1.29s-1.4-.25-2.44.31a3.2,3.2,0,0,1-2.73.07C8,50.62,7.57,53,7.57,53a2.7,2.7,0,0,1-1,.21,0.88,0.88,0,0,1-1.06-.87c0-1.38,1.73-2,1.73-3.33a1.64,1.64,0,0,0-1.81-1.67H4a0.87,0.87,0,0,1-.86-0.62c0-.06-0.09,0-0.07,0a5.1,5.1,0,0,1-.07.63,0.82,0.82,0,0,0,.93.88,1.47,1.47,0,0,0,.62-0.13c0.06,0,.09,0,0.06,0a1.13,1.13,0,0,0-.18,1s0.06,0,.06,0A1.51,1.51,0,0,1,5.87,48.1a0.84,0.84,0,0,1,.9,1c0,1.11-2,1.92-2,3.44s1.63,1.88,2.58,1.63c-0.06,1.55-1.83,2.07-1.88,1,0,0,0-.07-0.07,0A0.75,0.75,0,0,0,6,56.27c0.05,0,0,0,0,.07-0.67.45-.3,2.16-0.27,2.66a0.57,0.57,0,0,1-.73.62s-0.06,0,0,.06a0.78,0.78,0,0,0,1.14,0c0.48,0.15.18,0.56-.14,0.77-0.05,0-.05.07,0,0.07A0.85,0.85,0,0,0,6.92,60a0.79,0.79,0,0,0,.91.2,0.57,0.57,0,0,1,.9.45c0,0.06,0,0,.06,0a0.64,0.64,0,0,0-.35-1.11,0.53,0.53,0,0,1,.82.1s0.05,0,.05,0a0.62,0.62,0,0,0-1.07-.55c0-.09-0.17-0.55.49-0.54,0,0,.05,0,0-0.06a0.62,0.62,0,0,0-1,.07,1.08,1.08,0,0,1-.85.16C7,55.84,9.58,56.86,9.93,55.46c0-.07.05,0,0.06,0a0.63,0.63,0,0,0,1.12-.28s0-.07,0,0c-0.74.74-2.4-1.56-.13-3.43a3.28,3.28,0,0,1,4.32-.18,0.26,0.26,0,0,1-.19.33s0,0,0,.06a0.51,0.51,0,0,0,.57-0.12c0.42,0.29.06,0.66-.11,0.76s0,0,0,.06a0.67,0.67,0,0,0,.71-0.54l0.06,0v1.64c0,2.34,2.7,2.66,5.66,4.64,3-2,5.66-2.31,5.66-4.64V52.1l0.06,0a0.67,0.67,0,0,0,.71.54s0,0,0-.06a0.44,0.44,0,0,1-.11-0.76,0.5,0.5,0,0,0,.57.12s0,0,0-.06a0.26,0.26,0,0,1-.19-0.33,3.29,3.29,0,0,1,4.32.18c2.26,1.87.6,4.17-.13,3.43,0,0,0,0,0,0a0.63,0.63,0,0,0,1.12.28s0,0,.06,0c0.35,1.4,2.9.38,3.07,3.27a1,1,0,0,1-.85-0.16,0.63,0.63,0,0,0-1-.07,0,0,0,0,0,0,.06c0.66,0,.52.45,0.49,0.54a0.62,0.62,0,0,0-1.07.55c0,0.07,0,.06,0,0a0.53,0.53,0,0,1,.82-0.1,0.64,0.64,0,0,0-.35,1.11s0,0.07.06,0a0.56,0.56,0,0,1,.9-0.45,0.79,0.79,0,0,0,.91-0.2,0.85,0.85,0,0,0,.94.52s0.06,0,0-.07c-0.32-.21-0.61-0.62-0.14-0.77a0.78,0.78,0,0,0,1.14,0c0-.06,0-0.07,0-0.06A0.57,0.57,0,0,1,38.27,59c0-.5.4-2.21-0.28-2.64,0,0-.07,0,0-0.07a0.75,0.75,0,0,0,.55-1.18c0-.07-0.07-0.06-0.07,0,0,1.11-1.82.58-1.88-1,1,0.24,2.58-.09,2.58-1.63s-2-2.34-2-3.44a0.84,0.84,0,0,1,.9-1,1.5,1.5,0,0,1,1.43,1.14s0,0,.06,0a1.07,1.07,0,0,0-.18-1s0-.08.06,0a1.43,1.43,0,0,0,.62.13A0.82,0.82,0,0,0,41,47.44,5.3,5.3,0,0,1,41,46.81s0-.09-0.07,0a0.88,0.88,0,0,1-.86.62H38.53a1.64,1.64,0,0,0-1.81,1.67c0,1.36,1.73,2,1.73,3.33a0.88,0.88,0,0,1-1.06.87,2.55,2.55,0,0,1-1-.21s-0.4-2.42-1.57-3.26a3.2,3.2,0,0,1-2.73-.07c-1-.56-1.53-0.94-2.44-0.31s-1.71,1.31-1.8,1.29l-0.22,0V45.24a0.37,0.37,0,0,1,.43.43,0.58,0.58,0,0,0,.13.66,0,0,0,0,0,.06,0A0.28,0.28,0,0,1,28.47,46a4.83,4.83,0,0,1,1.34,1,2.2,2.2,0,0,1,1.08-1.25c-0.43-.07-2.3-0.52-2.3-1.33a0.41,0.41,0,0,0-.51-0.32s-0.31-.75-0.88-0.37a0,0,0,0,0,0,.07,0.58,0.58,0,0,1,.37.6,20.25,20.25,0,0,0-5.6-.82,19.84,19.84,0,0,0-3.54.33v1.89H17.7V44.1h0M12.64,63.42a0.47,0.47,0,0,1-.34-0.48V61.77a8.35,8.35,0,0,0-3.08-.47c-1.52,0-2,.34-2,0.46L6.8,64s0.62-.56,2.82-0.42c2.66,0.17,5.41,1.74,5.41.07v-1C12.94,62.66,12.64,63.32,12.64,63.42ZM29,62.66v1c0,1.67,2.75.1,5.41-.07,2.2-.14,2.82.42,2.82,0.42l-0.4-2.23c0-.12-0.5-0.46-2-0.46a8.3,8.3,0,0,0-3.08.47v1.17a0.46,0.46,0,0,1-.34.48C31.36,63.32,31.06,62.66,29,62.66Zm-7-1c4.28,0,8.62.22,9.19,0.87,0,0,.06,0,0.06,0V60.21c0-.66-4.48-1-9.25-1s-9.25.38-9.25,1v2.27s0,0.09.06,0C13.38,61.87,17.72,61.65,22,61.65ZM18.19,51l-0.43-.11,0,0-0.5-.22h0.45s0,0,0,0l-0.38-.38,0.5,0.18s0,0,0,0l-0.33-.48L18,50.25s0,0,0,0l-0.23-.57,0.44,0.42s0,0,0,0l-0.12-.57L18.5,50s0,0,0,0,0-.52,0-0.52l0.21,0.48s0,0,.06,0L19,49.5,19,50H18.94l-0.09.65c0.65-.15,1.45-1.26,2.07-1.26s1,0.86,2.36.42a4,4,0,0,1,.59,1.56c0.52,0.49,1.26.33,1.26-.19,0-.7-0.77-0.84-0.77-1.57a0.8,0.8,0,0,1,.86-0.8c0.33,0,.82.14,1.1,0.14a0.43,0.43,0,0,0,.44-0.34c0-.07.12,0,0.11,0s0,0.16,0,.32a0.64,0.64,0,0,1-.76.47s-0.06,0,0,0a0.47,0.47,0,0,1,0,.53,0,0,0,0,1,0,0,1,1,0,0,0-.81-0.74,0.36,0.36,0,0,0-.38.37c0,0.42.84,0.8,0.84,1.66s-0.89,1.11-1.79.89c0,0.85,1.3,1.36,1.33.75,0,0,0,0,0,0a0.33,0.33,0,0,1-.14.56,1.31,1.31,0,0,1,.33.81c0.1,0.4.52,0.18,0.54,0.17s0,0,0,0a0.45,0.45,0,0,1-.59.26c-0.22.16,0,.3,0.25,0.36,0,0,0,0,0,0a0.49,0.49,0,0,1-.62-0.11,0.41,0.41,0,0,1-.44.27,0.29,0.29,0,0,0-.23.39s0,0,0,0a0.35,0.35,0,0,1,0-.64,0.28,0.28,0,0,0-.41.19s0,0,0,0a0.34,0.34,0,0,1,.47-0.47,0.41,0.41,0,0,0-.51-0.21s0,0,0,0a0.34,0.34,0,0,1,.55-0.14,0.59,0.59,0,0,0,.47-0.06C24.3,53.25,23.2,54.2,23,53.31c0,0,0,0,0,0-0.06.19-.54,0.2-0.63-0.17,0,0,0,0,0,0s0.22,0.14.42-.15a1.11,1.11,0,0,0,.15-0.62,2,2,0,0,0-1.76-1.84,3.41,3.41,0,0,0-2,.66l0.5,0.12a0.78,0.78,0,0,1-1,.68l0.08-.58a0.68,0.68,0,0,0-.38.24h0a0.46,0.46,0,0,1,.27-0.54s0,0,0,0a0.49,0.49,0,0,0-.42.23h0A0.3,0.3,0,0,1,18.19,51Zm1.49,3.93c-0.19.24-.36,0-0.62,0a0.27,0.27,0,0,0-.28.28s0,0,0,0a0.35,0.35,0,0,1,.21-0.6,0.31,0.31,0,0,0-.46,0s0,0,0,0c0-.46.35-0.49,0.59-0.29a0.24,0.24,0,0,0-.26-0.3,0,0,0,0,1,0,0A0.32,0.32,0,0,1,19,53.86a1.94,1.94,0,0,1,.45.32,1.38,1.38,0,0,0,.64-0.37,2.82,2.82,0,0,1-.2-1s0,0,0,0a0.29,0.29,0,0,1-.43-0.31s0,0,0,0c0.13,0.19.35,0,.46-0.15a2.39,2.39,0,0,1,1.58-1,1.22,1.22,0,0,1,.61.23,0.37,0.37,0,0,0,.21.65s0,0,0,0c-1.11.42-1.6,0.58-1.6,1.51,0,0.48.17,0.75,0.45,0.69,0,0,0,0,0,0a0.41,0.41,0,0,1-.32.16,1.57,1.57,0,0,1-.39-0.13,0.72,0.72,0,0,0-.54.45,0.37,0.37,0,0,0,.19.28s0,0,0,0A0.38,0.38,0,0,1,19.68,54.89Zm2.92-9c-0.35,0-.57.06-0.56,0.17C22.21,46.23,22.43,46.21,22.6,45.88Zm-1.28.86a1.44,1.44,0,0,1,.54,0,0,0,0,0,1,0,.08c-0.51.07-.53,0.3-0.86,0.3a0.4,0.4,0,0,1-.36-0.53s0,0,0,0A0.5,0.5,0,0,0,21.32,46.74ZM14.7,58c0.34,0.43.66,0,1.1,0a0.49,0.49,0,0,1,.53.51s0,0,0,0A0.63,0.63,0,0,0,16,57.5a0.58,0.58,0,0,1,.84.08s0,0,0,0A0.62,0.62,0,0,0,15.8,57a0.43,0.43,0,0,1,.48-0.54s0,0,0,0c-0.56-.6-1,0.15-1.07.27-0.22.3-1-.26-1.34-0.59a2.6,2.6,0,0,0,.71-1.42V54.58s0,0,0,0a0.56,0.56,0,0,0,.26.07c0.16,0,.47,0,0.47-0.62,0,0,0,0,0,0a0.3,0.3,0,0,1-.25.15c-0.57,0-1.76-1.9-3.16-1.9a2.31,2.31,0,0,0-1.41.64,0.45,0.45,0,0,1,.18.46,0.52,0.52,0,0,1-.41.42s0,0,0,0a13.65,13.65,0,0,1,2.29,1c0.35,0.3.28,0.87,0.08,1.65s-0.61.65-.76,0.62,0,0,0,0a0.76,0.76,0,0,0,.6.31,3.13,3.13,0,0,0,.7-0.23,1.24,1.24,0,0,1,1,.81,0.64,0.64,0,0,1-.35.5s0,0,0,0A0.76,0.76,0,0,0,14.7,58Zm15.5,0.49s0,0,0,0a0.66,0.66,0,0,1-.35-0.5,1.24,1.24,0,0,1,1-.81,3.13,3.13,0,0,0,.7.23,0.77,0.77,0,0,0,.6-0.31s0,0,0,0-0.57.13-.76-0.62-0.27-1.35.08-1.65a13.65,13.65,0,0,1,2.29-1s0,0,0,0a0.48,0.48,0,0,1-.41-0.42,0.45,0.45,0,0,1,.18-0.46,2.31,2.31,0,0,0-1.41-.64c-1.4,0-2.59,1.9-3.16,1.9A0.31,0.31,0,0,1,28.69,54s0,0,0,0c0,0.57.3,0.62,0.47,0.62a0.56,0.56,0,0,0,.26-0.07s0,0,0,0v0.12a2.6,2.6,0,0,0,.71,1.42C29.8,56.44,29,57,28.78,56.7c-0.1-.12-0.51-0.87-1.07-0.27,0,0,0,0,0,0a0.44,0.44,0,0,1,.48.54,0.62,0.62,0,0,0-1.08.53,0,0,0,0,0,0,0A0.58,0.58,0,0,1,28,57.49a0.63,0.63,0,0,0-.38,1.08s0,0,0,0a0.49,0.49,0,0,1,.53-0.51c0.44,0,.77.41,1.1,0A0.72,0.72,0,0,0,30.2,58.53Zm-11.35-11a0.26,0.26,0,0,1-.25,0s0,0,0,0a0.53,0.53,0,0,0,.39.32,0.38,0.38,0,0,0,.27-0.12s0.83,0.27,1.23.38a1.4,1.4,0,0,0-.28.74c-0.33-.2-1.65-0.91-1.65-0.91l-0.41.56c-0.07.09-.39-0.15-0.33-0.24l0.31-.43a0.48,0.48,0,0,0-.42,0s0,0,0,0a0.45,0.45,0,0,1,.58-0.23c0-.24-0.35-0.16-0.44-0.14s0,0,0,0a0.57,0.57,0,0,1,.7-0.14l0.14-.19-0.28-.3,0.18-.24,0.2,0.27,1.52-2.08a1.47,1.47,0,0,1,.45-0.16,1.84,1.84,0,0,1,0,.48l-1.5,2.1,0.32,0.1-0.17.24L19,47.33Zm5.33-.34c0,0.19.12,0.47,0.37,0.39,0,0,0,0,0,0a0.35,0.35,0,0,1-.59.16,0.56,0.56,0,0,0,.21.81s0,0,0,0a0.44,0.44,0,0,1-.65-0.17,0.57,0.57,0,0,0-.07.79,1.72,1.72,0,0,1-1.44.13,2.49,2.49,0,0,0-1.41-.45,1.18,1.18,0,0,1,1.25-1.16c0.6-.1.68-0.38,0.59-0.59a1.19,1.19,0,0,0-.58.13,0.21,0.21,0,0,1,0-.23,0.58,0.58,0,0,1-.06-0.2,0.76,0.76,0,0,0,.5-0.09c0.08-.44-0.37-0.49-0.71-0.25a0.39,0.39,0,0,1-.13-0.33,0.17,0.17,0,0,1-.08-0.13,1.48,1.48,0,0,1,.63-0.42c0-.15.21-0.35,0.75-0.3a1.78,1.78,0,0,0-.1-0.79s0-.07.06,0a6.5,6.5,0,0,0,.5.56s0.6-.31.63-0.3a6,6,0,0,1,.11.68c0.08,0.1.54,0,.74,0.09s0,0.06,0,.07A1.67,1.67,0,0,0,24,46,2.06,2.06,0,0,1,24.18,47.22Z"/>
</svg>