<svg xmlns:inkscape="http://www.inkscape.org/namespaces/inkscape" xmlns:sodipodi="http://sodipodi.sourceforge.net/DTD/sodipodi-0.dtd" xmlns="http://www.w3.org/2000/svg" xmlns:svg="http://www.w3.org/2000/svg" version="1.1" id="svg2" sodipodi:docname="33172192_jut9.eps" viewBox="377.51 0 5067.26 3888">
  <defs id="defs6"/>
  <sodipodi:namedview id="namedview4" borderopacity="0.25" inkscape:showpageshadow="2" inkscape:pageopacity="0.0" inkscape:pagecheckerboard="0" inkscape:deskcolor="#d1d1d1"/>
  <g id="g8" inkscape:groupmode="layer" inkscape:label="ink_ext_XXXXXX" transform="matrix(1.3333333,0,0,-1.3333333,0,3888)">
    <g id="g10" transform="scale(0.1)">

      <path d="M 37287.8,29160 C 37189.8,21592.9 34615.6,14484.1 24896.9,15697.4 14651.4,16976.5 9696.18,8544.4 7212.23,0 h -12.43 c 2484.97,8550.1 7443.5,16989.7 17699,15709.4 9707.1,-1211.9 12278.8,5889.6 12376.9,13450.6 h 12.1" style="fill:#FFF;fill-opacity:1;fill-rule:nonzero;stroke:none" id="path14"/>
      <path d="M 36908.1,29160 C 37355.6,21929.6 35146,15198.3 24977.5,16076.3 13886.3,17034 9241.46,8528.2 7149.49,0 h -12.3 C 9229.94,8533.8 13877.6,17046.9 24979,16088.3 c 10156.3,-877 12363.9,5847.3 11916.9,13071.7 h 12.2" style="fill:#FFF;fill-opacity:1;fill-rule:nonzero;stroke:none" id="path16"/>
      <path d="M 36600.8,29160 C 37547.4,22265.4 35641.1,15900.8 25058.2,16455.2 13095.6,17081.9 8804.11,8510.9 7119.33,0 h -12.28 c 1685.31,8516.6 5979.25,17094.5 17952.25,16467.3 10570,-553.8 12474.5,5804.2 11528.8,12692.7 h 12.7" style="fill:#FFF;fill-opacity:1;fill-rule:nonzero;stroke:none" id="path18"/>
      <path d="M 36369.1,29160 C 37762.9,22600.3 36097,16590.7 25138.8,16834.1 12277.7,17119.8 8384.5,8493.2 7121.8,0 h -12.2 c 1263.06,8498.8 5158.3,17132.1 18029.9,16846.2 10944.8,-243.1 12609.2,5760 11216.7,12313.8 h 12.9" style="fill:#FFF;fill-opacity:1;fill-rule:nonzero;stroke:none" id="path20"/>
      <path d="M 36216.7,29160 C 38001.3,22933.5 36511.6,17267 25219.4,17213 11431,17147.1 7986.2,8475.5 7159.92,0 h -12.12 c 826.44,8481.2 4273,17159.1 18072,17225.1 11278.1,53.9 12765.8,5714.2 10982.9,11934.9 h 14" style="fill:#FFF;fill-opacity:1;fill-rule:nonzero;stroke:none" id="path22"/>
      <path d="M 36142.4,29160 C 38256.1,23264.5 36880.8,17928.5 25299.9,17591.9 10554.2,17163.3 7611.64,8458.7 7235.09,0 h -12.11 c 376.71,8464.4 3320.92,17175 18077.02,17604 11566.1,336.2 12939.8,5666.2 10828.2,11556 h 14.2" style="fill:#FFF;fill-opacity:1;fill-rule:nonzero;stroke:none" id="path24"/>
      <path d="M 36151.9,29160 C 38528.7,23592.3 37202.6,18574.2 25380.5,17970.8 9645.78,17167.8 7265.35,8443.6 7350.39,0 h -12.08 c -84.99,8449.3 2297.16,17179.3 18041.99,17982.9 11806.7,602.6 13131.1,5615 10756.5,11177.1 h 15.1" style="fill:#FFF;fill-opacity:1;fill-rule:nonzero;stroke:none" id="path26"/>
      <path d="M 36245.5,29160 C 38814.3,23916.1 37473.1,19202.7 25461,18349.7 9568.88,17221.3 7170.57,9311.8 7440.41,1306.3 7455.09,870.801 7477.67,435 7506.4,0 h -12.13 c -28.68,434.699 -51.26,870.199 -65.92,1305.5 -270.07,8011.5 2129.75,15927.1 18032.25,17056.3 11996,851.8 13335.3,5559.7 10769,10798.2 h 15.9" style="fill:#FFF;fill-opacity:1;fill-rule:nonzero;stroke:none" id="path28"/>
      <path d="M 36418.8,29160 C 39103.1,24235.2 37688.1,19812.6 25541.6,18728.7 9593.43,17305.5 7074.86,10169.8 7466.2,2646.9 7511.98,1767.1 7597.56,881.898 7706.11,0 h -12.23 C 7585.44,881.602 7499.9,1766.4 7454.16,2645.9 7062.48,10175 9582.61,17316.7 25540.9,18740.7 37670.7,19823.1 39083.6,24240.4 36402,29160 h 16.8" style="fill:#FFF;fill-opacity:1;fill-rule:nonzero;stroke:none" id="path30"/>
      <path d="M 36672.8,29160 C 39392.2,24548.2 37844,20402.4 25622.1,19107.6 9610.6,17411.3 6953.38,10922.3 7439.37,3860.9 7527.23,2584.4 7717.83,1289.1 7950.78,0 h -12.37 c -232.83,1288.6 -423.26,2583.4 -511.1,3859.6 -486.46,7067.8 2172.33,13562.7 18193.89,15260 12204.7,1293 13750.5,5433.7 11033.8,10040.4 h 17.8" style="fill:#FFF;fill-opacity:1;fill-rule:nonzero;stroke:none" id="path32"/>
      <path d="M 37003.7,29160 C 39675.1,24854.1 37938.3,20970.8 25702.6,19486.5 9615.3,17535 6810.04,11585.2 7368.95,4955.8 7506.12,3328.6 7845.95,1660.3 8241.81,0 h -12.53 c -395.63,1659.6 -735.22,3327.3 -872.37,4954.3 -559.42,6636 2247.39,12591.4 18344.69,14544.2 12218,1482.2 13952,5360.5 11283.3,9661.5 h 18.8" style="fill:#FFF;fill-opacity:1;fill-rule:nonzero;stroke:none" id="path34"/>
      <path d="m 37397.1,29160 c 2537.7,-4008.5 568.8,-7643.8 -11614,-9294.6 C 9605.47,17673.5 6648.19,12173.9 7262.54,5943.4 7453.47,4007.3 7989.18,2000.3 8580.37,0 h -12.71 C 7976.8,1999.5 7441.47,4005.8 7250.57,5941.8 c -615,6237.1 2343.83,11742.3 18531.33,13935.6 12164.7,1648.2 14130.5,5278.9 11595.3,9282.6 h 19.9" style="fill:#FFF;fill-opacity:1;fill-rule:nonzero;stroke:none" id="path36"/>
      <path d="m 37851.2,29160 c 2320.4,-3721 75.3,-7122.8 -11987.6,-8915.6 C 9580.77,17824.3 6470.47,12701.5 7126.54,6836.5 7373.56,4628.3 8154.33,2314.5 8967.09,0 h -12.94 c -812.43,2313.6 -1592.59,4626.5 -1839.61,6834.7 -656.8,5871.7 2455.08,11000.1 18747.66,13421.6 12044.5,1790.1 14285.9,5187.3 11968,8903.7 h 21" style="fill:#FFF;fill-opacity:1;fill-rule:nonzero;stroke:none" id="path38"/>
      <path d="M 38341.9,29160 C 40363.2,25715.1 37815.8,22532.5 25944.1,20623.3 9541.56,17985.4 6278.98,13178.8 6965.9,7647.2 7257.77,5296.7 8262.57,2814.8 9275.53,312.699 L 9402.07,0 h -13.23 L 9264.32,307.801 C 8251.1,2810.5 7246,5293.1 6953.93,7645.3 6266.19,13183.6 9530.35,17995.8 25942.6,20635.2 37795.5,22541.4 40339,25719.5 38320,29160 h 21.9" style="fill:#FFF;fill-opacity:1;fill-rule:nonzero;stroke:none" id="path40"/>
      <path d="M 38853.8,29160 C 40501.3,25978.2 37633.4,23000.9 26024.6,21002.2 9488.65,18155.2 6075.56,13614.7 6784.76,8386.7 7101.01,6055.4 8236.59,3587 9394.11,1071 9557.95,714.902 9722.18,357.801 9884.62,0 h -13.45 c -161.63,356 -325.04,711.203 -488.06,1065.6 -1157.89,2516.8 -2293.85,4986.1 -2610.35,7319 -710.1,5234.9 2704.61,9780.9 19250.24,12629.5 11589.9,1995.4 14453.3,4968.4 12807.7,8145.9 h 23.1" style="fill:#FFF;fill-opacity:1;fill-rule:nonzero;stroke:none" id="path42"/>
      <path d="M 39362.9,29160 C 40572.5,26227.1 37379.9,23441.7 26105.1,21381.1 9423.05,18332.3 5861.58,14016.3 6586.38,9064.6 6923.59,6760.7 8188.29,4318.6 9491.33,1802.5 9800.51,1205.6 10111.8,604.398 10413.4,0 h -13.7 c -300.7,602.5 -610.95,1201.6 -919.1,1796.7 -1303.54,2517 -2568.72,4960 -2906.19,7265.7 -725.82,4958.7 2837.27,9280 19528.89,12330.6 11255.8,2057.2 14443.3,4838.2 13235.2,7767 h 24.4" style="fill:#FFF;fill-opacity:1;fill-rule:nonzero;stroke:none" id="path44"/>
      <path d="M 39836.3,29160 C 40558.7,26460.6 37057.4,23854.7 26185.5,21760.1 9345.76,18515.5 5638.26,14389.5 6373.42,9689.3 6728.51,7418.9 8119.84,5013.8 9568.6,2509.5 10046.5,1683.4 10530.6,846.398 10985.8,0 h -13.9 c -454.2,844.301 -937,1679.1 -1413.74,2503.1 C 8108.77,5008.5 6716.9,7414.5 6361.46,9687 c -736.21,4707.2 2972.92,8838.5 19822.24,12084.9 10852.8,2091 14348.5,4692.7 13627.3,7388.1 h 25.3" style="fill:#FFF;fill-opacity:1;fill-rule:nonzero;stroke:none" id="path46"/>
      <path d="M 40252.8,29160 C 40457.4,26677.8 36670.6,24240.3 26266,22139 9257.84,18704.1 5406.66,14738.9 6148.02,10268 6518.23,8035.5 8033.22,5676 9627.23,3193.5 10296.8,2150.6 10980.3,1086 11598.7,0 h -14.2 c -617.3,1083.7 -1299.3,2146 -1967.51,3186.7 -1594.66,2483.5 -3110.26,4844 -3480.85,7078.9 -742.54,4477.9 3110.27,8448.3 20127.96,11885.2 10385.7,2097.5 14166.5,4530.9 13962.5,7009.2 h 26.2" style="fill:#FFF;fill-opacity:1;fill-rule:nonzero;stroke:none" id="path48"/>
      <path d="M 40575.8,29160 C 40255.9,26878.8 36226.6,24599.4 26346.5,22517.9 9160.24,18897 5167.69,15068.2 5912.02,10806.9 6294.83,8615.2 7930.17,6308.3 9668.25,3856.4 10552,2609.7 11462.1,1325.6 12247.8,0 h -14.3 c -784.7,1323 -1693.1,2604.8 -2575.17,3849.2 -1738.9,2453 -3374.98,4761 -3758.22,6955.1 -745.56,4268.5 3248.62,8102.6 20444.29,11725.4 9861.2,2077.6 13884.9,4352.9 14207,6630.3 h 24.4" style="fill:#FFF;fill-opacity:1;fill-rule:nonzero;stroke:none" id="path50"/>
      <path d="M 40780.6,29160 C 39949,27063.5 35734,24934.1 26427,22896.8 9053.86,19094 4922.06,15380.7 5666.8,11311.1 6060,9162.5 7812.11,6913.5 9692.76,4499.5 10812.1,3062.7 11976.9,1567.5 12928,0 h -14.3 C 11963.5,1564.7 10800.6,3057.4 9683.13,4491.8 7801.59,6907 6048.63,9157 5654.91,11308.4 c -746.04,4076.8 3387.37,7795.3 20769.89,11600.2 9288.5,2033.2 13492.7,4158.7 14324.6,6251.4 h 31.2" style="fill:#FFF;fill-opacity:1;fill-rule:nonzero;stroke:none" id="path52"/>
      <path d="M 40835.8,29160 C 39531,27233 35203.6,25246.6 26507.4,23275.7 8939.44,19294.2 4670.47,15678.8 5413.63,11785 5815.27,9680.7 7680.42,7493.9 9701.66,5124.2 11077.1,3511.5 12524.4,1814.1 13632.7,0 h -14.6 C 12510.8,1811.1 11065.8,3505.9 9692.37,5116.1 7670.07,7487.1 5803.93,9675 5401.72,11782.3 4657.2,15683.2 8927.84,19303.9 26505.2,23287.5 35183,25254.2 39501.1,27236.6 40806,29160 h 29.8" style="fill:#FFF;fill-opacity:1;fill-rule:nonzero;stroke:none" id="path54"/>
      <path d="M 40756.5,29160 C 39031.5,27388.8 34645.6,25539.7 26587.9,23654.7 8817.77,19497.5 4413.42,15964.6 5153.45,12232.5 5561.8,10173.2 7536.19,8051.9 9695.85,5731.6 11346.7,3958 13105,2067.9 14356,0 h -14.7 C 13091.3,2064.6 11335.5,3952 9686.89,5723.1 7526.04,8044.8 5550.58,10167.2 5141.58,12229.8 4400.15,15969 8806.15,19507 26585.6,23666.4 c 8039.7,1880.8 12415,3725.9 14138.8,5493.6 h 32.1" style="fill:#FFF;fill-opacity:1;fill-rule:nonzero;stroke:none" id="path56"/>
      <path d="M 40501.9,29160 C 38432.4,27532.5 34073,25817 26668.3,24033.6 8689.5,19703.3 4151.51,16239.8 4887.13,12656.9 5300.7,10642.7 7380.51,8589.3 9676.13,6322.8 11620.2,4403.5 13718.3,2331.2 15091.7,0 h -14.8 C 13704.3,2327.7 11609,4397.2 9667.5,6314.1 7370.53,8581.9 5289.54,10636.4 4875.29,12654 4138.17,16244.2 8677.83,19712.8 26665.9,24045.3 34052.6,25824.5 38404,27536.1 40471.8,29160 h 30.1" style="fill:#FFF;fill-opacity:1;fill-rule:nonzero;stroke:none" id="path58"/>
      <path d="M 40095.9,29160 C 37763.6,27666.6 33495.1,26081.6 26748.8,24412.5 8555.19,19911.3 3885.04,16505.9 4615.39,13060.7 5032.81,11091.6 7214.17,9107.8 9643.22,6898.8 11896.8,4849.5 14362.6,2606.1 15832.7,0 H 15818 C 14348.5,2602.3 11885.7,4842.9 9634.89,6889.8 7204.45,9100.1 5021.82,11085 4603.61,13057.8 3871.75,16510.2 8543.52,19920.7 26746.3,24424.2 33475.4,26089 37733,27670.1 40062.4,29160 h 33.5" style="fill:#FFF;fill-opacity:1;fill-rule:nonzero;stroke:none" id="path60"/>
      <path d="M 39527.2,29160 C 37023.5,27793.1 32923.1,26336.9 26829.3,24791.4 8415.4,20121.3 3614.58,16764.1 4338.86,13446.4 4758.99,11522 7038.12,9609 9597.78,7460.6 12175.5,5297 15036.7,2894.5 16573.1,0 h -14.8 C 15022.3,2890.4 12164.6,5290.1 9589.79,7451.2 7028.57,9600.9 4748.08,11515 4327.1,13443.4 c -725.88,3325 4076.56,6687.2 22499.6,11359.7 6076.9,1541.2 10166.9,2993.5 12666.7,4356.9 h 33.8" style="fill:#FFF;fill-opacity:1;fill-rule:nonzero;stroke:none" id="path62"/>
      <path d="M 38831.5,29160 C 36242.4,27914.1 32362.9,26585.6 26909.7,25170.3 8270.56,20333 3340.43,17015.4 4058.05,13816.1 4479.89,11935.6 6853.02,10094.2 9540.48,8008.8 12455.4,5746.9 15739.1,3198 17307.5,0 h -14.8 C 15724.5,3193.7 12444.5,5739.7 9532.81,7999.1 6843.62,10085.8 4468.97,11928.5 4046.27,13813 c -719.31,3206.7 4212.53,6529.3 22860.83,11369 5436.5,1410.9 9305.9,2735.6 11890.4,3978 h 34" style="fill:#FFF;fill-opacity:1;fill-rule:nonzero;stroke:none" id="path64"/>
      <path d="M 38035.9,29160 C 35438.9,28031.6 31818.3,26829.4 26990.2,25549.3 8121.18,20546.4 3062.77,17260.7 3773.4,14171.5 4196.02,12334.2 6659.45,10564.6 9471.81,8544.2 12735.1,6199.9 16467.1,3518 18030,0 h -14.2 c -1563.1,3513.4 -5291.3,6192.4 -8551.29,8534.3 -2814.22,2021.7 -5279.3,3792.6 -5702.89,5634.1 -712.29,3096.5 4347.74,6387.2 23225.88,11392.5 4811.7,1275.8 8422.4,2474.1 11014.1,3599.1 h 34.3" style="fill:#FFF;fill-opacity:1;fill-rule:nonzero;stroke:none" id="path66"/>
      <path d="M 37133.1,29160 C 34608.9,28146.9 31296.2,27071.1 27070.6,25928.2 7967.58,20761.1 2782,17500.6 3485.26,14514.2 3907.93,12719.3 6458.07,11021.3 9392.39,9067.5 13013.9,6656.3 17219.2,3855.4 18737.6,0 h -14.1 C 17204.7,3850.5 13003.4,6648.5 9385.42,9057.4 6449.15,11012.5 3897.21,12711.6 3473.49,14511 c -704.97,2993.8 4482.27,6259.2 23594.41,11428.8 4209.8,1138.7 7511.4,2210.6 10029.1,3220.2 h 36.1" style="fill:#FFF;fill-opacity:1;fill-rule:nonzero;stroke:none" id="path68"/>
      <path d="M 36161.7,29160 C 33774,28261.4 30796.1,27311.6 27151.1,26307.1 7810.08,20977 2498.35,17735.8 3194.01,14845.4 3616.03,13091.9 6249.43,11465.3 9302.7,9579.4 10869.6,8611.6 12547.1,7575.5 14093.3,6418.6 16481.9,4631.5 18556.1,2556.1 19426.6,0 h -13.7 C 18542.6,2552 16471,4624.2 14085.8,6408.9 12540,7565.4 10862.7,8601.4 9296.05,9569.1 c -3055.39,1887.2 -5690.67,3515 -6113.79,5273.1 -697.44,2897.8 4615.95,6144 23966.04,11476.5 3629.6,1000.3 6596.4,1946.3 8977,2841.3 h 36.4" style="fill:#FFF;fill-opacity:1;fill-rule:nonzero;stroke:none" id="path70"/>
      <path d="M 35127.1,29160 C 32936.6,28376.1 30320.7,27552.4 27231.6,26686 7649.05,21194.1 2211.99,17966.9 2899.91,15166.4 3320.71,13453.3 6033.95,11897.6 9203.18,10080.4 11111.5,8986.2 13185.1,7797.3 15023.6,6421.8 17386.2,4654 19360,2578.2 20096.6,0 h -13.6 c -736.5,2574.1 -2707.6,4646.8 -5066.9,6412 -1837.9,1375.1 -3911.2,2563.9 -5819.22,3657.9 -3171.52,1818.5 -5886.71,3375.3 -6308.66,5093.2 -689.78,2807.9 4748.94,6040.1 24340.38,11534.5 3074.3,862.2 5678.8,1682.1 7861.2,2462.4 h 37.3" style="fill:#FFF;fill-opacity:1;fill-rule:nonzero;stroke:none" id="path72"/>
    </g>
  </g>
</svg>