<?xml version="1.0" encoding="utf-8"?>
<!-- Generator: Adobe Illustrator 27.5.0, SVG Export Plug-In . SVG Version: 6.00 Build 0)  -->
<svg version="1.1" id="Capa_1" xmlns="http://www.w3.org/2000/svg" xmlns:xlink="http://www.w3.org/1999/xlink" x="0px" y="0px"
	 viewBox="0 0 2122 2122" style="enable-background:new 0 0 2122 2122;" xml:space="preserve">
<g>
	<path style="fill:#FBBA09;" d="M1859.922,1318.437c-17.431,0-34.543,3.882-47.26,13.947c-9.668,7.652-22.192,12.238-34.082,14.982
		c-19.206,4.432-37.331-10.853-36.154-30.528c8.135-135.918,19.73-242.93,15.675-261.863c4.782-8.069-2.826-128.722-11.011-266.925
		c-1.036-17.482-16.681-30.547-34.01-28.005c-15.364,2.253-33.012,7.114-45.426,17.408c-10.677,8.854-24.68,13.061-39.59,13.832
		c-45.353,2.344-89.046-31.979-94.125-77.108c-5.932-52.701,35.145-97.342,86.649-97.342c17.431,0,33.907,4.74,47.259,13.946
		c13.083,9.021,30.134,13.772,44.928,16.269c17.277,2.916,33.282-10,34.456-27.482c9.369-139.526,37.976-261.72,26.783-274.759
		c-10.935-12.739-146.933-3.547-282.851,4.588c-19.676,1.177-34.96-16.947-30.528-36.154c2.743-11.889,7.33-24.414,14.982-34.082
		c10.065-12.717,13.947-29.829,13.947-47.26c0-51.723-45.021-92.93-98.015-86.571c-40.656,4.879-71.781,36.682-75.958,77.416
		c-2.134,20.814,2.678,40.564,13.354,56.221c7.616,11.17,12.208,24.446,14.974,36.639c4.298,18.95-10.485,36.9-29.901,36.131
		c-134.322-5.322-262.749-14.853-269.351-6.93c-8.069-4.781-103.139,20.565-241.341,28.751
		c-17.482,1.035-30.547,16.681-28.006,34.009c2.254,15.364,7.115,33.013,17.408,45.427c8.854,10.677,13.061,24.68,13.832,39.59
		c2.344,45.354-31.979,89.046-77.108,94.126c-52.701,5.932-97.342-35.145-97.342-86.649c0-17.43,4.74-33.907,13.946-47.259
		c9.022-13.083,13.772-30.134,16.269-44.928c2.916-17.277-10-33.282-27.482-34.456c-139.526-9.369-255.623-39.805-268.663-28.611
		c-12.739,10.935,4.58,148.761,12.715,284.68c1.177,19.676-16.947,34.96-36.154,30.528c-11.89-2.743-24.414-7.33-34.082-14.982
		c-12.717-10.065-29.829-13.947-47.26-13.947c-51.723,0-92.93,45.023-86.571,98.015c4.879,40.656,36.682,71.781,77.416,75.957
		c20.814,2.134,40.564-2.677,56.222-13.354c11.17-7.616,24.445-12.208,36.639-14.974c18.95-4.297,36.9,10.485,36.131,29.901
		c-5.322,134.322-24.398,241.741-16.475,248.342c-11.194,13.04-0.038,127.217,9.331,266.743
		c1.174,17.482,17.179,30.398,34.456,27.481c14.794-2.496,31.845-7.247,44.928-16.269c13.351-9.206,29.828-13.946,47.259-13.946
		c51.503,0,92.58,44.642,86.649,97.342c-5.079,45.13-48.772,79.452-94.126,77.108c-14.91-0.77-28.913-4.978-39.59-13.831
		c-12.414-10.294-30.062-15.155-45.427-17.408c-17.328-2.541-32.974,10.523-34.009,28.006
		c-8.186,138.202-31.703,277.333-26.922,285.402c5.273,8.899,140.917-3.942,283.299-8.286c19.453-0.593,34.792,16.898,31.04,35.995
		c-2.627,13.377-7.41,27.919-16.067,39.038c-8.896,11.427-13.252,26.057-13.851,41.616c-1.727,44.872,31.287,86.294,75.835,91.946
		c53.26,6.757,98.634-34.57,98.634-86.495c0-17.431-4.353-34.183-13.947-47.26c-7.718-10.518-12.309-24.092-15.038-36.804
		c-4.199-19.56,10.984-37.919,30.973-37.122c91.026,3.627,188.304,10.4,242.038,11.021c3.852,0.93,11.438,0.754,22.154-0.216
		c6.961-0.285,12.229-0.822,15.538-1.66c49.111-5.879,136.991-20.599,231.593-27.785c16.968-1.289,29.444-16.421,27.338-33.307
		c-1.975-15.839-6.821-34.48-18.13-47.891c-10.455-12.399-13.947-29.829-13.947-47.26c0-51.938,45.397-93.273,98.677-86.489
		c44.506,5.667,77.502,47.118,75.797,91.951c-0.592,15.563-4.935,30.2-13.856,41.605c-10.443,13.351-15.379,30.271-17.641,44.935
		c-2.676,17.34,10.004,33.344,27.521,34.333c142.433,8.049,261.35,38.026,269.872,30.925c7.922-6.603-9.735-150.09-15.057-284.412
		c-0.77-19.416,17.181-34.199,36.13-29.902c12.194,2.766,25.469,7.357,36.64,14.974c15.657,10.677,35.408,15.488,56.221,13.354
		c40.734-4.176,72.537-35.302,77.416-75.957C1952.852,1363.459,1911.645,1318.437,1859.922,1318.437z"/>
	<g>
		<path style="fill:#00A4C5;" d="M1055.381,1494.866c0.797-19.99-17.562-35.173-37.122-30.974
			c-9.206,1.977-18.849,4.951-27.471,9.361c-3.192,1.833-6.266,3.858-9.074,6.225c-12.399,10.454-29.828,13.947-47.26,13.947
			c-35.752,0-66.474-21.514-79.941-52.3c-6.268-14.06-8.945-30.073-6.813-46.882c5.651-44.548,47.074-77.562,91.946-75.836
			c15.559,0.599,30.189,4.955,41.616,13.852c11.119,8.656,25.661,13.439,39.038,16.067c19.097,3.751,37.082-11.608,35.995-31.04
			c-6.554-117.16-22.448-249.297-13.549-254.571c-10.676,8.007-103.428,9.973-240.937-0.474
			c-16.968-1.289-29.444-16.421-27.338-33.307c1.903-15.263,6.534-33.082,16.983-46.362c0.312-0.481,0.599-0.979,0.922-1.454
			c10.677-15.658,15.488-35.408,13.354-56.221c-4.176-40.734-35.302-72.537-75.958-77.416c-16.411-1.97-32.047,0.642-45.829,6.695
			c-31.844,14.65-53.25,48.744-51.869,85.07c0.592,15.563,4.935,30.2,13.856,41.605c10.443,13.35,15.378,30.271,17.641,44.935
			c2.675,17.34-10.004,33.344-27.521,34.333c-142.433,8.049-262.769,1.957-271.29-5.144c-11.194,13.04-0.038,127.217,9.331,266.743
			c1.174,17.482,17.179,30.398,34.456,27.481c14.794-2.496,31.845-7.247,44.928-16.269c13.351-9.206,29.828-13.946,47.259-13.946
			c51.503,0,92.58,44.642,86.649,97.342c-5.079,45.13-48.772,79.452-94.126,77.108c-14.91-0.77-28.913-4.978-39.59-13.831
			c-12.414-10.294-30.062-15.155-45.427-17.408c-17.328-2.541-32.974,10.523-34.009,28.006
			c-8.186,138.202-31.703,277.333-26.922,285.402c5.273,8.899,140.917-3.942,283.299-8.286c19.453-0.593,34.792,16.898,31.04,35.995
			c-2.627,13.377-7.41,27.919-16.067,39.038c-8.896,11.427-13.252,26.057-13.851,41.616c-1.727,44.872,31.287,86.294,75.835,91.946
			c53.26,6.757,98.634-34.57,98.634-86.495c0-17.431-4.353-34.183-13.947-47.26c-7.718-10.518-12.309-24.092-15.038-36.804
			c-4.199-19.56,10.984-37.919,30.973-37.122c91.026,3.627,188.304,10.4,242.038,11.021c-0.938-0.227-1.732-0.495-2.216-0.859
			C1038.316,1771.124,1050.139,1626.431,1055.381,1494.866z"/>
		<path style="fill:#95C11F;" d="M1859.922,1318.437c-17.431,0-34.543,3.882-47.26,13.947c-9.668,7.652-22.192,12.238-34.082,14.982
			c-19.206,4.432-37.331-10.853-36.154-30.528c8.135-135.918,19.73-242.93,15.675-261.863c-5.267,8.888-116.483,2.003-265.021,5.36
			c-0.547,0.036-1.093,0.072-1.638,0.108c-17.394,1.089-32.599,18.592-32.233,35.929c2.123,12.112,5.789,25.567,12.039,37.11
			c1.379,2.332,2.844,4.601,4.491,6.717c8.896,11.427,13.252,26.056,13.851,41.615c0.29,7.542-0.479,14.966-2.042,22.159
			c-6.362,33.031-31.316,59.348-63.576,67.742c-0.778,0.202-1.535,0.451-2.321,0.631c-2.286,0.527-4.621,0.905-6.971,1.249
			c-0.313,0.043-0.611,0.126-0.925,0.166c-0.07,0.009-0.139,0.006-0.209,0.016c-7.007,0.93-14.247,1.12-21.676,0.284
			c-8.535-0.961-16.679-3.312-24.266-6.785c-27.264-11.854-47.195-37.25-51.512-67.684c-1.145-6.446-1.672-13.024-1.33-19.657
			c0.771-14.91,4.978-28.913,13.832-39.59c0.999-1.205,1.905-2.498,2.804-3.795c6.321-9.944,10.268-21.982,12.708-33.347
			c4.199-19.56-10.984-37.919-30.973-37.122c-131.565,5.242-263.117,6.328-270.387-3.366c-8.899,5.274,6.996,137.411,13.549,254.571
			c1.087,19.432-16.898,34.791-35.995,31.04c-13.377-2.627-27.919-7.411-39.038-16.067c-11.427-8.896-26.057-13.253-41.616-13.852
			c-44.872-1.726-86.294,31.287-91.946,75.836c-2.132,16.809,0.544,32.822,6.813,46.882c13.593,30.488,44.146,51.752,79.682,51.752
			c17.431,0,34.183-4.354,47.26-13.947c2.901-2.129,6.049-3.998,9.332-5.677c8.622-4.41,18.265-7.384,27.471-9.361
			c19.56-4.199,37.919,10.984,37.122,30.974c-5.242,131.564-17.065,276.258-7.372,283.529c0.484,0.363,1.278,0.632,2.216,0.859
			c3.852,0.93,11.438,0.754,22.154-0.216c4.634-0.42,9.79-0.971,15.538-1.66c49.111-5.879,136.991-20.599,231.593-27.785
			c16.968-1.289,29.444-16.421,27.338-33.307c-1.975-15.839-6.821-34.48-18.13-47.891c-10.455-12.399-13.947-29.829-13.947-47.26
			c0-51.938,45.397-93.273,98.677-86.489c44.506,5.667,77.502,47.118,75.797,91.951c-0.592,15.563-4.935,30.2-13.856,41.605
			c-10.443,13.351-15.379,30.271-17.641,44.935c-2.676,17.34,10.004,33.344,27.521,34.333
			c142.433,8.049,261.35,38.026,269.872,30.925c7.922-6.603-9.735-150.09-15.057-284.412c-0.77-19.416,17.181-34.199,36.13-29.902
			c12.194,2.766,25.469,7.357,36.64,14.974c15.657,10.677,35.408,15.488,56.221,13.354c40.734-4.176,72.537-35.302,77.416-75.957
			C1952.852,1363.459,1911.645,1318.437,1859.922,1318.437z"/>
		<path style="fill:#E6007E;" d="M1065.028,629.969c1.055,19.419,16.905,34.756,35.992,31.007
			c13.377-2.627,27.919-7.411,39.038-16.066c11.427-8.896,26.056-13.253,41.616-13.852c0.641-0.024,1.272,0.028,1.911,0.018
			c0.952-0.022,1.885-0.067,2.857-0.066c0.667,0,1.343,0.091,2.012,0.112c1.033,0.04,2.062,0.095,3.089,0.172
			c1.455,0.11,2.908,0.255,4.368,0.455c31.471,3.916,59.324,24.466,71.628,53.114c3.247,7.036,5.374,14.447,6.08,22.032
			c3.464,27.302-5.761,52.48-22.519,70.588c-14.726,16.902-35.682,27.949-60.347,27.949c-0.415,0-0.854-0.027-1.273-0.031
			c-0.791,0.021-1.56,0.128-2.356,0.128c-10.044,0-19.836-1.5-28.857-4.56c-6.994-2.159-13.413-5.18-18.404-9.387
			c-10.518-7.717-24.092-12.309-36.804-15.038c-1.22-0.262-2.424-0.448-3.611-0.562c-0.023-0.002-0.045-0.001-0.068-0.003
			c-15.114-1.418-27.356,8.857-31.806,23.388c0,0.001,0,0.001,0,0.002c-0.964,7.178-1.915,14.287-2.855,21.345
			c-12.898,142.48-12.568,234.948-21.974,242.003c7.27,9.694,138.822,8.608,270.387,3.366c19.99-0.797,35.172,17.562,30.973,37.122
			c-2.44,11.365-6.387,23.403-12.708,33.347c-0.749,1.178-1.513,2.343-2.33,3.457c-9.594,13.076-13.947,29.829-13.947,47.26
			c0,4.195,0.398,8.288,0.971,12.325c4.317,30.434,24.248,55.83,51.512,67.684c13.823,6.01,29.501,8.548,45.943,6.501
			c0.07-0.009,0.139-0.007,0.209-0.016c0.314-0.04,0.612-0.122,0.925-0.166c2.35-0.344,4.686-0.721,6.971-1.249
			c0.786-0.18,1.543-0.429,2.321-0.631c32.1-8.333,56.571-35.489,63.576-67.742c1.563-7.194,2.332-14.617,2.042-22.159
			c-0.599-15.559-4.955-30.189-13.851-41.615c-1.647-2.116-3.113-4.385-4.491-6.717c-5.866-9.923-9.448-21.489-11.576-32.32
			c-0.312-1.586-0.429-3.188-0.464-4.79c-0.367-17.337,14.838-34.84,32.233-35.929c0.362-0.023,0.717-0.088,1.081-0.096
			c0.187-0.005,0.37-0.007,0.557-0.012c148.538-3.357,259.754,3.528,265.021-5.36c4.782-8.069-2.826-128.722-11.011-266.925
			c-1.036-17.482-16.681-30.547-34.01-28.005c-15.364,2.253-33.012,7.114-45.426,17.408c-10.677,8.854-24.68,13.061-39.59,13.832
			c-45.353,2.344-89.046-31.979-94.125-77.108c-5.932-52.701,35.145-97.342,86.649-97.342c17.431,0,33.907,4.74,47.259,13.946
			c13.083,9.021,30.134,13.772,44.928,16.269c17.277,2.916,33.282-10,34.456-27.482c9.369-139.526,37.976-261.72,26.783-274.759
			c-10.935-12.739-146.933-3.547-282.851,4.588c-19.676,1.177-34.96-16.947-30.528-36.154c2.743-11.889,7.33-24.414,14.982-34.082
			c10.065-12.717,13.947-29.829,13.947-47.26c0-51.723-45.021-92.93-98.015-86.571c-40.656,4.879-71.781,36.682-75.958,77.416
			c-2.134,20.814,2.678,40.564,13.354,56.221c7.616,11.17,12.208,24.446,14.974,36.639c4.298,18.95-10.485,36.9-29.901,36.131
			c-134.322-5.322-262.749-14.853-269.351-6.93c8.894,5.271,12.33,134.807,20.348,284.907
			C1065.018,629.8,1065.023,629.884,1065.028,629.969z"/>
	</g>
</g>
</svg>
