<?xml version="1.0" encoding="utf-8"?>
<!DOCTYPE svg PUBLIC "-//W3C//DTD SVG 1.1//EN" "http://www.w3.org/Graphics/SVG/1.1/DTD/svg11.dtd">
<svg version="1.1" id="Layer_1" xmlns="http://www.w3.org/2000/svg" xmlns:xlink="http://www.w3.org/1999/xlink" x="0px" y="0px"
	 viewBox="27.64 9.1254 1056.9442 1389.4147" enable-background="new 27.64 9.1254 1056.9442 1389.4147" xml:space="preserve">
<g>
	<path d="M436.95,35.21c63.39-2.63,126.84,0.85,190.07,5.25c7.54,0.29,14.79,2.55,22.01,4.56c12.08,3.78,24.3,9.6,31.8199,20.21
		c31.06-1.48,62.23-3.88,93.31-1.39c14.91,1.05,29.89,0.97,44.81,0.17c3.42-0.01,6.58-1.47,9.9301-1.96
		c10.2-1.59,20.63-0.43,30.59,2.08c0.13,2.48,2.83,3.42,4.02,5.32c4.67,6.02,3.41,14.64-0.4,20.76
		c-6.61,10.85-18.04,17.47-29.26,22.69c26.56,12.44,53.96,23.21,79.62,37.49c11.1,0.17,23.04,3.26,31,11.41
		c-0.4,0.4-1.18,1.2-1.58,1.61c3.56,6.31,6.56,14.1,3.68,21.25c-2.98,7.51-10.69,11.55-17.9,14.1c-9.58,3.13-19.66,4.72-29.72,5.04
		c-14.1-0.46-26.86-7.42-38.84-14.21c-1.86-1.06-4.11-0.49-6.13-0.66c-23.22-0.79-45.81-7.61-66.99-16.87
		c-5.16,0.8-10.36,1.31-15.54,1.88c5.47,7.7,10.91,15.73,13.38,24.96c1.12,3.93,1.11,8.15-0.19,12.03
		c-3.78,12.77-11.71,23.7-18.91,34.72c-7.01,10.48-13.99,21.02-19.85,32.21c-8.76,16.23-22.05,29.24-33.63,43.39
		c-1.6,2.12-3.92,3.96-4.31,6.74c-2.18,9.69-5.34,19.44-11.28,27.53c-2.16,2.74-4.47,5.54-7.58,7.2c-0.51-0.31-1.52-0.92-2.02-1.23
		c-2.3,2.24-5.58,1.88-8.43,1.2c-1.24,8.48-9.39,13.62-16.77,16.43c-9.21,3.84-19.25,1.3-28.86,1.61
		c-9.44,5.62-19.81,10.69-31.06,10.61c-8.28,0.28-15.93-3.49-22.93-7.49c-12.57-7.36-24.12-16.3-35.48-25.37
		c-20.55-16.67-40.23-34.38-59.7-52.29c-1.31-1.3-3.2-1.54-4.87-2.08c-22-6.09-43.95-13.1-64.08-24.03
		c-19.67-10.57-37.22-24.75-52.7-40.78c-9.76,1.48-18.98,5.33-27.36,10.45c1.23,7.71,2.44,15.43,3.84,23.12
		c-22.79,14.01-45.61,27.97-68.35,42.05c1.23,5.17,2.23,10.4,3.34,15.6c-81.88,72.59-164.06,144.83-245.97,217.37
		c0.01-131.16,0.1-262.33-0.04-393.49C99.6,112.32,178.02,82.38,257.9,59.14c0.29,0.64,0.87,1.93,1.16,2.57
		c12.04-3.48,24.09-6.93,36.11-10.49c0.62,1.27,1.22,2.56,1.79,3.86C342.7,43.25,389.81,37.38,436.95,35.21 M602.63,196.62
		c-6.31,13.81-8.85,29.27-7.98,44.39c1.86,6.66,4.31,13.15,6.37,19.76c15.68,11.53,23.91,29.78,32.1,46.82
		c6.71-2.21,13.59,0.47,20.02,2.35c-0.42-10.08,1.37-20.25,5.31-29.54c2.16-4.85,4.91-9.83,9.68-12.54
		c-0.95-6.74-1.3-13.72,0.56-20.34c2.34-9.17,8.59-16.83,15.93-22.57c-13.1-3.72-19.22-17.58-21.5-29.89
		c-16.56-0.1-32.67-6.84-44.95-17.83C611.04,181.82,606.13,189.05,602.63,196.62z"/>
	<path d="M247.11,741.09c13.73-14.11,34.8-19.59,53.97-16.73c21.7,3.29,43.44,7.22,64.22,14.46c13.15,4.52,25.67,10.8,37.12,18.69
		c25.27,9.8,50.7,19.24,76.01,28.97c1.45,0.52,2.92,1.26,4.52,1.19c37.64-0.96,75.91,2.84,111.45,15.86
		c26.5099,9.68,51.1,24.83,71.11,44.77c15.93,15.66,29.07,34.02,39.63,53.67c1.52,2.6801,2.61,5.71,4.89,7.9
		c25.4399,26.73,48.25,55.94,68.09,87.05c24.54,38.29,44.33,79.31,65.54,119.46c11.76-2.37,23.54-4.61,35.29-7.02
		c10.27,30.86,20.8,61.62,31.03,92.48c3.4-2,6.92-4.39,11.02-4.4099c1.73-0.15,3.14,1.0499,3.94,2.5099
		c36.95,66.16,73.67,132.4601,110.68,198.6001c-132.76-0.13-265.53-0.03-398.29-0.05c-3.05-26.48-6.26-52.9299-9.42-79.39
		c-2.49-22.41-5.61-44.76-7.77-67.2c5.44-3.41,11.83-4.65,17.98-6.11c-8.47-27.9501-16.82-55.9501-25.42-83.87
		c3.45-0.54,6.87-1.25,10.31-1.86c-5.75-18.17-12.37-36.3401-22.87-52.3701c-4.56-6.85-10.17-13.21-17.34-17.3999
		c-37.27-23.6801-78.39-40.4401-119.93-54.98c-33.75-11.9001-67.9-22.6901-101.25-35.6901c-9.8-3.93-19.98-7.32-28.6-13.6
		c-19.98-14.01-36.71-31.94-54.75-48.24c-5.73-5.08-11.2-10.54-17.74-14.58c-17.77-11.43-37.11-20.07-55.53-30.34
		c-17.51-9.59-33.35-21.82-49.46-33.53c-21.96-16.53-43.96-33.2-63.9-52.15c-15.34-4.05-30.17-12.06-39.48-25.24
		c0.85-1.11,1.73-2.18,2.63-3.23c-0.68-8.45,2.7-17.29,9.78-22.22c10.82-7.56,24.87-8.14,37.57-6.71
		c18.6,2.55,37.56,9.74,50.33,24.0099c14.74,0.71,30.03,4.48,41.45,14.31c5.13,4.35,9.33,9.7,12.65,15.53
		c30.3,0.89,61.9,7.26,86.51,25.95c3.52-0.59,7.1-0.71,10.65-1.04c-1.2-1.6-3.48-1.32-5.1-2.24c-16.14-7.59-32.02-16.46-44.89-28.98
		c-7.98-7.93-14.96-17.79-16.3-29.23C236.16,758.17,240.32,748.21,247.11,741.09z"/>
	<path d="M660.2628,336.4019c10.3561-3.3861,21.8589-3.1365,32.0573,0.7017c8.477,3.16,16.0192,8.7643,21.5175,15.9486
		c5.9716,7.7329,9.4919,17.319,9.9534,27.0794c0.6664,12.261-3.5627,24.7011-11.6088,33.981
		c6.3696,6.3272,11.2038,14.1967,13.9306,22.7538c3.4261,10.6881,3.5509,22.4076,0.3673,33.1687
		c-2.5478,8.6701-7.2526,16.6809-13.5279,23.1752c-5.3688,5.536-11.8561,10.0076-19.0003,12.9228
		c-0.0141,14.8795-0.0071,29.759-0.0047,44.6385c-0.5298-0.0047-1.0549-0.0094-1.5753-0.0094
		c0.0141,31.2661-0.0024,62.5322,0.0094,93.7982c0.0565,0.4992-0.1554,0.9937-0.5722,1.2833
		c-4.7542,3.5674-9.5084,7.1395-14.2673,10.7046c-0.6028,0.4545-1.4999,0.4427-2.1052,0.0071
		c-5.2981-3.5651-10.6127-7.1042-15.9062-10.674c-0.4615-0.2731-0.6781-0.8006-0.6099-1.3186
		c0.0165-31.2661-0.0141-62.5298,0.0165-93.7959c-2.7103,0-5.4206,0.0024-8.1285,0c-0.0118-4.2385,0.0353-8.4794-0.0189-12.7155
		c-0.5581,1.5046-1.0785,3.0281-1.6719,4.5234c-0.4521-0.1884-0.9019-0.3603-1.3539-0.5275
		c-9.9346,27.0887-19.9422,54.1493-29.898,81.231c-0.1365,0.4451-0.4003,0.8925-0.8948,0.989
		c-5.2275,1.5824-10.4597,3.1436-15.6919,4.7094c-0.7747,0.2755-1.6436-0.106-2.0557-0.7888
		c-3.2896-4.554-6.5886-9.101-9.8969-13.6409c-0.3862-0.4945-0.8383-1.1138-0.5063-1.7614
		c7.302-19.8621,14.6276-39.7172,21.9366-59.577c2.6632-7.2855,5.4064-14.5452,8.0155-21.8519
		c-2.3453-0.8147-4.6671-1.6978-6.9959-2.5573c4.7542-12.8803,9.4896-25.7654,14.239-38.6481
		c-6.3506-5.8445-11.199-13.2995-13.9824-21.4657c-3.4968-10.123-3.7416-21.3362-0.6499-31.5934
		c3.5274-12.0962,11.6442-22.7702,22.3652-29.3941c-5.4841-8.9103-7.8624-19.6667-6.7745-30.0628
		c0.9536-9.8121,5.0532-19.2734,11.4981-26.7262C644.2342,344.2102,651.8517,339.117,660.2628,336.4019 M646.5842,351.7195
		c-6.4872,6.0046-11.0201,14.0978-12.6755,22.7867c-2.0227,10.2643-0.0541,21.2561,5.4724,30.1476
		c4.6694-2.1664,9.6591-3.6381,14.7547-4.361c0.7794-0.113,1.5753-0.1342,2.343-0.3414c7.9637-2.3477,16.4501-2.8563,24.6493-1.5965
		c9.5649,1.4646,18.6989,5.5053,26.2882,11.5005c2.6679-3.1812,4.9143-6.7298,6.5579-10.5468
		c4.3656-9.9746,4.6105-21.6588,0.6805-31.81c-3.047-8.0037-8.6301-15.0067-15.7202-19.8056
		c-7.5869-5.178-16.907-7.7376-26.0739-7.1843C663.1473,341.029,653.6837,345.0721,646.5842,351.7195 M667.8969,413.2721
		c-4.036,1.0549-7.3538,4.3209-8.5689,8.3004c7.587,3.12,16.0993,3.9018,24.1407,2.3194c-0.3767-3.2425-2.0227-6.3342-4.5941-8.364
		C675.8464,413.0978,671.6361,412.1912,667.8969,413.2721 M660.1357,428.712c1.1703,2.4748,3.0352,4.6364,5.4064,6.0305
		c3.8029,2.2935,8.7855,2.5196,12.7438,0.4851c1.7378-1.1303,3.0305-2.8233,4.0101-4.627
		C674.8928,431.686,667.254,431.0102,660.1357,428.712z"/>
</g>
</svg>
