<svg fill="none" xmlns="http://www.w3.org/2000/svg" xmlns:xlink="http://www.w3.org/1999/xlink" viewBox="0 5 24 14"><clipPath id="clip0_246_1849"><path d="m0 0h24v24h-24z"></path></clipPath><g clip-path="url(#clip0_246_1849)" clip-rule="evenodd" fill="rgb(0,0,0)" fill-rule="evenodd"><path d="m23.7071 5.29289c.3905.39053.3905 1.02369 0 1.41422l-9.5 9.49999c-.3905.3905-1.0237.3905-1.4142 0l-4.2929-4.2929-6.79289 6.7929c-.39053.3905-1.023693.3905-1.414217 0-.3905241-.3905-.3905241-1.0237 0-1.4142l7.499997-7.50001c.39053-.39052 1.02369-.39052 1.41422 0l4.29289 4.29291 8.7929-8.79291c.3905-.39052 1.0237-.39052 1.4142 0z"></path><path d="m16 6c0-.55228.4477-1 1-1h6c.5523 0 1 .44772 1 1v6c0 .5523-.4477 1-1 1s-1-.4477-1-1v-5h-5c-.5523 0-1-.44772-1-1z"></path></g></svg>