<svg xmlns="http://www.w3.org/2000/svg" id="Shape_L" viewBox="2.39 2.39 95.22 95.22"><path d="m96.11 40.5h-23.18l16.39-16.39c.58-.56.58-1.56 0-2.12 0 0-11.31-11.31-11.31-11.31-.56-.56-1.56-.56-2.12 0l-16.39 16.39v-23.18c0-.83-.67-1.5-1.5-1.5h-16c-.83 0-1.5.67-1.5 1.5v23.18l-16.39-16.39c-.56-.56-1.56-.56-2.12 0l-11.31 11.31c-.58.56-.58 1.56 0 2.12 0 0 16.39 16.39 16.39 16.39h-23.18c-.83 0-1.5.67-1.5 1.5v16c0 .83.67 1.5 1.5 1.5h23.18l-16.39 16.39c-.58.56-.58 1.56 0 2.12 0 0 11.31 11.31 11.31 11.31.56.56 1.56.56 2.12 0l16.39-16.39v23.18c0 .83.67 1.5 1.5 1.5h16c.83 0 1.5-.67 1.5-1.5v-23.18l16.39 16.39c.56.56 1.56.56 2.12 0l11.31-11.31c.58-.56.58-1.56 0-2.12 0 0-16.39-16.39-16.39-16.39h23.18c.83 0 1.5-.67 1.5-1.5v-16c0-.83-.67-1.5-1.5-1.5zm-1.5 16h-25.3c-.61 0-1.15.37-1.39.93-.23.56-.1 1.21.33 1.63l17.89 17.89-9.19 9.19-17.89-17.89c-.43-.43-1.07-.56-1.63-.33s-.93.78-.93 1.39v25.3h-13v-25.3c0-.61-.37-1.15-.93-1.39-.56-.23-1.21-.1-1.63.33l-17.89 17.89-9.19-9.19 17.89-17.89c.43-.43.56-1.07.33-1.63s-.78-.93-1.39-.93h-25.3v-13h25.3c.61 0 1.15-.37 1.39-.93.23-.56.1-1.21-.33-1.63l-17.89-17.89 9.19-9.19 17.89 17.89c.43.43 1.07.56 1.63.33s.93-.78.93-1.39v-25.3h13v25.3c0 .61.37 1.15.93 1.39.56.23 1.21.1 1.63-.33l17.89-17.89 9.19 9.19-17.89 17.89c-.43.43-.56 1.07-.33 1.63s.78.93 1.39.93h25.3z"></path></svg>