<?xml version="1.0" encoding="iso-8859-1"?>
<!-- Generator: Adobe Illustrator 19.0.0, SVG Export Plug-In . SVG Version: 6.00 Build 0)  -->
<svg version="1.1" id="Capa_1" xmlns="http://www.w3.org/2000/svg" xmlns:xlink="http://www.w3.org/1999/xlink" x="0px" y="0px"
	 viewBox="0 0 512 512" style="enable-background:new 0 0 512 512;" xml:space="preserve">
<g>
	<g>
		<path d="M466.334,102.74H351.684l-5.681-39.01c-2.486-17.06-17.361-29.926-34.601-29.926H200.599
			c-17.241,0-32.116,12.866-34.601,29.928l-5.681,39.008H45.667C20.486,102.74,0,123.226,0,148.406v284.122
			c0,25.181,20.486,45.667,45.667,45.667h420.667c25.18,0,45.666-20.486,45.666-45.667V148.406
			C512,123.226,491.514,102.74,466.334,102.74z M195.802,68.072c0.344-2.366,2.407-4.15,4.798-4.15h110.803
			c2.391,0,4.454,1.785,4.798,4.15l5.049,34.668H190.753L195.802,68.072z M481.883,432.529c0,8.573-6.975,15.549-15.549,15.549
			H45.667c-8.574,0-15.55-6.975-15.55-15.55V288.983c13.252,10.353,29.903,16.546,47.985,16.546h117.66v14.724
			c0,5.562,3.065,10.671,7.972,13.287l45.179,24.094c2.215,1.181,4.65,1.772,7.087,1.772c2.436,0,4.872-0.59,7.087-1.772
			l45.179-24.094c4.907-2.617,7.972-7.725,7.972-13.287V305.53h117.66c18.081,0,34.733-6.193,47.985-16.546V432.529z
			 M225.88,311.218v-43.502h60.241v43.502L256,327.282L225.88,311.218z M481.883,227.427c0,26.459-21.526,47.985-47.985,47.985
			h-117.66v-22.756c0-8.316-6.742-15.059-15.059-15.059h-90.358c-8.316,0-15.059,6.742-15.059,15.059v22.756H78.102
			c-26.459,0.001-47.985-21.525-47.985-47.984v-79.022c0-7.502,5.341-13.78,12.419-15.232c1.011-0.208,2.058-0.316,3.13-0.316
			h420.667c1.072,0,2.118,0.109,3.129,0.316c7.079,1.453,12.419,7.731,12.419,15.232V227.427z"/>
	</g>
</g>
<g>
</g>
<g>
</g>
<g>
</g>
<g>
</g>
<g>
</g>
<g>
</g>
<g>
</g>
<g>
</g>
<g>
</g>
<g>
</g>
<g>
</g>
<g>
</g>
<g>
</g>
<g>
</g>
<g>
</g>
</svg>
