<svg xmlns="http://www.w3.org/2000/svg" viewBox="4 3.06 16 17.88"><g><path d="m5 12c0-3.764 2.988-6.835 6.716-6.985l-.069.069c-.195.195-.195.512 0 .707.097.098.225.147.353.147s.256-.049.354-.146l.938-.938c.195-.195.195-.512 0-.707l-.938-.938c-.195-.195-.512-.195-.707 0s-.195.512 0 .707l.097.097c-4.292.137-7.744 3.663-7.744 7.987 0 2.277.975 4.453 2.675 5.97.096.085.214.127.333.127.137 0 .274-.057.373-.167.184-.206.166-.522-.04-.706-1.488-1.328-2.341-3.232-2.341-5.224z"/><path d="m20 12c0-2.277-.975-4.453-2.675-5.97-.207-.184-.522-.165-.706.04-.184.206-.166.522.04.706 1.488 1.328 2.341 3.232 2.341 5.224 0 3.764-2.988 6.835-6.716 6.985l.069-.069c.195-.195.195-.512 0-.707s-.512-.195-.707 0l-.938.938c-.195.195-.195.512 0 .707l.938.938c.098.098.226.146.354.146s.256-.049.354-.146c.195-.195.195-.512 0-.707l-.097-.097c4.291-.138 7.743-3.664 7.743-7.988z"/><path d="m16.25 12c0-2.344-1.907-4.25-4.25-4.25s-4.25 1.906-4.25 4.25 1.907 4.25 4.25 4.25 4.25-1.906 4.25-4.25zm-7.5 0c0-1.792 1.458-3.25 3.25-3.25s3.25 1.458 3.25 3.25-1.458 3.25-3.25 3.25-3.25-1.458-3.25-3.25z"/><path d="m11.809 12.462c.061.024.126.038.191.038h.938c.276 0 .5-.224.5-.5s-.224-.5-.5-.5h-.73l-.791-.791c-.195-.195-.512-.195-.707 0s-.195.512 0 .707l.937.937c.045.046.101.084.162.109z"/></g></svg>