<svg id="fi_9967306" enable-background="new 0 0 512 512" height="512" viewBox="0 0 512 512" width="512" xmlns="http://www.w3.org/2000/svg"><g><path d="m71.629 143.258c39.497 0 71.629-32.132 71.629-71.629 0-39.496-32.133-71.629-71.629-71.629s-71.629 32.133-71.629 71.629 32.133 71.629 71.629 71.629zm-28.577-22.77c5.577-10.536 16.467-17.311 28.577-17.311 12.111 0 23 6.774 28.577 17.311-8.395 4.929-18.158 7.77-28.577 7.77s-20.182-2.841-28.577-7.77zm28.577-105.488c31.226 0 56.629 25.404 56.629 56.629 0 15.355-6.152 29.293-16.109 39.504-8.471-14.053-23.688-22.955-40.521-22.955-16.832 0-32.049 8.902-40.52 22.955-9.956-10.211-16.108-24.149-16.108-39.504 0-31.225 25.404-56.629 56.629-56.629z"></path><path d="m71.629 79.129c12.976 0 23.532-10.557 23.532-23.532s-10.557-23.533-23.532-23.533-23.532 10.557-23.532 23.533 10.556 23.532 23.532 23.532zm0-32.065c4.705 0 8.532 3.828 8.532 8.532 0 4.705-3.828 8.532-8.532 8.532s-8.532-3.827-8.532-8.532c0-4.704 3.827-8.532 8.532-8.532z"></path><path d="m144.291 320.129c0 39.497 32.133 71.629 71.629 71.629s71.629-32.132 71.629-71.629c0-39.496-32.133-71.629-71.629-71.629s-71.629 32.133-71.629 71.629zm43.051 48.859c5.577-10.536 16.467-17.311 28.577-17.311s23 6.774 28.577 17.311c-8.395 4.929-18.158 7.77-28.577 7.77s-20.182-2.841-28.577-7.77zm85.206-48.859c0 15.355-6.152 29.293-16.109 39.503-8.471-14.052-23.689-22.955-40.52-22.955-16.832 0-32.05 8.902-40.52 22.955-9.957-10.21-16.109-24.149-16.109-39.503 0-31.225 25.404-56.629 56.629-56.629s56.629 25.404 56.629 56.629z"></path><path d="m192.387 304.097c0 12.976 10.557 23.532 23.532 23.532s23.532-10.557 23.532-23.532-10.557-23.532-23.532-23.532-23.532 10.556-23.532 23.532zm32.065 0c0 4.705-3.828 8.532-8.532 8.532s-8.532-3.827-8.532-8.532 3.828-8.532 8.532-8.532 8.532 3.827 8.532 8.532z"></path><path d="m368.742 151.79c0 39.497 32.133 71.629 71.629 71.629s71.629-32.133 71.629-71.629-32.133-71.629-71.629-71.629-71.629 32.133-71.629 71.629zm43.052 48.86c5.577-10.536 16.467-17.311 28.577-17.311s23 6.774 28.577 17.311c-8.395 4.929-18.158 7.77-28.577 7.77s-20.182-2.841-28.577-7.77zm28.577-105.489c31.225 0 56.629 25.404 56.629 56.629 0 15.355-6.152 29.293-16.109 39.504-8.471-14.053-23.689-22.955-40.52-22.955-16.832 0-32.05 8.902-40.521 22.955-9.957-10.211-16.109-24.149-16.109-39.504.001-31.225 25.405-56.629 56.63-56.629z"></path><path d="m440.371 159.29c12.976 0 23.532-10.557 23.532-23.532s-10.557-23.532-23.532-23.532-23.532 10.557-23.532 23.532 10.557 23.532 23.532 23.532zm0-32.064c4.705 0 8.532 3.828 8.532 8.532 0 4.705-3.828 8.532-8.532 8.532s-8.532-3.827-8.532-8.532c0-4.704 3.828-8.532 8.532-8.532z"></path><path d="m501.602 217.697c-4.11.51-7.03 4.255-6.52 8.366.96 7.746 1.552 15.148 1.793 22.437h-83.732c-15.512 0-30.084 7.587-38.979 20.295l-26.131 37.33c-12.591 17.989-11.287 42.093 3.172 58.618l23.526 26.887c6.478 7.403 10.045 16.897 10.045 26.733v41.449c-38.168 24.218-82.475 37.188-128.776 37.188-25.023 0-49.458-3.805-72.661-11.109v-15.428c0-7.37 2.536-14.598 7.139-20.353l23.282-29.102c2.587-3.234 2.063-7.954-1.171-10.542s-7.955-2.063-10.542 1.171l-23.282 29.102c-6.724 8.404-10.426 18.96-10.426 29.723v10.159c-30.657-11.954-58.785-30.242-82.752-54.209-20.388-20.388-36.658-43.792-48.426-69.197l14.816-19.761c7.17-9.561 11.119-21.407 11.119-33.358v-55.79c0-12.192-4.093-24.229-11.525-33.892l-24.947-32.441c2.376-7.341 5.1-14.592 8.197-21.735 1.648-3.801-.097-8.217-3.897-9.865-3.801-1.648-8.217.098-9.864 3.897-13.975 32.23-21.06 66.457-21.06 101.73 0 68.38 26.628 132.667 74.98 181.02 48.353 48.351 112.64 74.98 181.02 74.98s132.667-26.629 181.02-74.98c48.352-48.353 74.98-112.64 74.98-181.02 0-10.354-.665-20.75-2.033-31.782-.509-4.111-4.259-7.032-8.365-6.521zm-480.041-17.701 18.12 23.563c5.427 7.056 8.416 15.845 8.416 24.748v55.79c0 8.727-2.883 17.377-8.119 24.358l-9.544 12.725c-10.131-26.862-15.434-55.612-15.434-85.18 0-19.051 2.206-37.774 6.561-56.004zm404.852 226.417c-8.392 8.392-17.297 16.083-26.639 23.056v-31.106c0-13.471-4.885-26.473-13.756-36.611l-23.526-26.887c-9.901-11.315-10.794-27.82-2.172-40.138l26.131-37.33c6.091-8.701 16.069-13.896 26.691-13.896h83.73c-1.869 61.561-26.713 119.166-70.459 162.912z"></path><path d="m135.091 224.077-.231-24.261c-.027-2.876-1.697-5.484-4.299-6.711-2.601-1.228-5.676-.859-7.913.948l-24.803 20.033c-11.239 9.077-17.684 22.568-17.684 37.015v20.932c0 12.976 10.557 23.532 23.532 23.532h19.679c4.142 0 7.5-3.358 7.5-7.5s-3.358-7.5-7.5-7.5h-19.679c-4.705 0-8.532-3.828-8.532-8.532v-20.933c0-9.892 4.414-19.13 12.109-25.346l12.738-10.289.083 8.754c.122 12.819 10.65 23.248 23.47 23.248 12.854 0 23.383-10.457 23.471-23.312l.132-19.446c.076-11.159 4.813-21.911 12.998-29.498l41.731-38.681c12.163-11.274 16.004-29.115 9.558-44.396l-9.091-21.548c-1.723-4.084-.076-8.743 3.832-10.837l12.644-6.776c10.268-5.502 16.647-16.158 16.647-27.807v-10.16c.172 0 .344-.006.516-.006 44.332 0 86.641 11.78 123.943 34.305l-31.678 31.677c-7.473 7.474-11.588 17.409-11.588 27.977v18.783c0 4.704-3.828 8.532-8.532 8.532h-8.016c-17.396 0-31.548 14.152-31.548 31.548v24.049c0 17.396 14.152 31.548 31.548 31.548h48.097c4.142 0 7.5-3.358 7.5-7.5s-3.358-7.5-7.5-7.5h-48.097c-9.125 0-16.548-7.423-16.548-16.548v-24.049c0-9.125 7.423-16.548 16.548-16.548h8.016c12.976 0 23.532-10.557 23.532-23.532v-18.783c0-6.562 2.555-12.73 7.195-17.37l33.943-33.943c4.113 2.852 8.158 5.84 12.127 8.966 1.375 1.083 3.011 1.608 4.636 1.608 2.219 0 4.417-.981 5.897-2.86 2.563-3.254 2.002-7.969-1.251-10.533-45.543-35.868-100.256-54.827-158.223-54.827-35.273 0-69.5 7.085-101.729 21.06-3.8 1.647-5.545 6.064-3.897 9.864 1.647 3.801 6.064 5.545 9.864 3.897 25.586-11.093 52.516-17.555 80.246-19.312v9.659c0 6.11-3.346 11.7-8.732 14.586l-12.644 6.775c-10.777 5.774-15.32 18.624-10.567 29.889l9.091 21.548c4.002 9.487 1.617 20.564-5.935 27.564l-41.731 38.681c-11.208 10.39-17.697 25.114-17.801 40.396l-.132 19.446c-.032 4.64-3.832 8.414-8.471 8.414-4.627.001-8.427-3.763-8.471-8.39z"></path></g></svg>