<svg xmlns="http://www.w3.org/2000/svg" id="Object" enable-background="new 0 0 64 64" viewBox="13.41 10.99 36.83 41.92"><path d="m48.9000015 36.5c-1.5999985-2.7999992-1.7999992-6.2000008 0-8.8999996.9000015-1.2999992 1.2999992-2.7999992 1.2999992-4.3999996 0-4.6000004-3.9000015-8.3000002-8.7999992-8.3000002-.7000008 0-1.4000015.1000004-2.0999985.1999998-3.2999992.6999998-6.7000008-.3000002-9.3999996-2.3000002-1.7000007-1.1999998-3.7999992-1.8999996-6.1000003-1.8000002-4.5.1999998-8.1999998 3.8000002-8.6999998 8.2000008-.1999999 2.1000003.3000001 4.2000007 1.3000001 5.7999992 1.3999996 2.2999992 1 5.2999992-.8000002 7.2999992-1.6000004 2-2.5 4.5999985-2.0999994 7.5.6000004 4 3.7999992 7.2999992 7.8999996 8 1.7999992.2999992 3.6000004 0 5.1000004-.5999985 1.2000008-.5 2.7000008-.2000008 3.5.9000015 2.2000008 3.2999992 6.2000008 5.2999992 10.6000023 4.7000008 4.9000015-.7000008 8.9000015-4.7000008 9.4000015-9.5999985.5999909-2.4000053-.0000076-4.800003-1.1000061-6.7000045z"/></svg>